<svg xmlns="http://www.w3.org/2000/svg" viewBox="0 0 1280 640" width="1280" height="640">
  <defs>
<!-- Bird gradient -->
    <linearGradient id="gold" x1="0%" y1="0%" x2="100%" y2="100%">
      <stop offset="0%" stop-color="#f59e0b"/>
      <stop offset="100%" stop-color="#fbbf24"/>
    </linearGradient>
    <!-- Darker gold for shadow facets -->
    <linearGradient id="goldDark" x1="0%" y1="0%" x2="100%" y2="100%">
      <stop offset="0%" stop-color="#d97706"/>
      <stop offset="100%" stop-color="#f59e0b"/>
    </linearGradient>
    <!-- Lightest gold for highlight facets -->
    <linearGradient id="goldLight" x1="0%" y1="100%" x2="100%" y2="0%">
      <stop offset="0%" stop-color="#fbbf24"/>
      <stop offset="100%" stop-color="#fcd34d"/>
    </linearGradient>
  </defs>

  <!-- Background -->
  <rect width="1280" height="640" fill="#0f172a"/>

  <!-- Subtle hex grid -->
  <g opacity="0.04" stroke="#94a3b8" stroke-width="0.5" fill="none">
    <!-- Row 1 -->
    <polygon points="40,20 60,10 80,20 80,40 60,50 40,40"/>
    <polygon points="80,20 100,10 120,20 120,40 100,50 80,40"/>
    <polygon points="120,20 140,10 160,20 160,40 140,50 120,40"/>
    <polygon points="160,20 180,10 200,20 200,40 180,50 160,40"/>
    <polygon points="200,20 220,10 240,20 240,40 220,50 200,40"/>
    <polygon points="240,20 260,10 280,20 280,40 260,50 240,40"/>
    <polygon points="280,20 300,10 320,20 320,40 300,50 280,40"/>
    <polygon points="320,20 340,10 360,20 360,40 340,50 320,40"/>
    <polygon points="360,20 380,10 400,20 400,40 380,50 360,40"/>
    <polygon points="400,20 420,10 440,20 440,40 420,50 400,40"/>
    <polygon points="440,20 460,10 480,20 480,40 460,50 440,40"/>
    <polygon points="480,20 500,10 520,20 520,40 500,50 480,40"/>
    <polygon points="520,20 540,10 560,20 560,40 540,50 520,40"/>
    <polygon points="560,20 580,10 600,20 600,40 580,50 560,40"/>
    <polygon points="600,20 620,10 640,20 640,40 620,50 600,40"/>
    <polygon points="640,20 660,10 680,20 680,40 660,50 640,40"/>
    <polygon points="680,20 700,10 720,20 720,40 700,50 680,40"/>
    <polygon points="720,20 740,10 760,20 760,40 740,50 720,40"/>
    <polygon points="760,20 780,10 800,20 800,40 780,50 760,40"/>
    <polygon points="800,20 820,10 840,20 840,40 820,50 800,40"/>
    <polygon points="840,20 860,10 880,20 880,40 860,50 840,40"/>
    <polygon points="880,20 900,10 920,20 920,40 900,50 880,40"/>
    <polygon points="920,20 940,10 960,20 960,40 940,50 920,40"/>
    <polygon points="960,20 980,10 1000,20 1000,40 980,50 960,40"/>
    <polygon points="1000,20 1020,10 1040,20 1040,40 1020,50 1000,40"/>
    <polygon points="1040,20 1060,10 1080,20 1080,40 1060,50 1040,40"/>
    <polygon points="1080,20 1100,10 1120,20 1120,40 1100,50 1080,40"/>
    <polygon points="1120,20 1140,10 1160,20 1160,40 1140,50 1120,40"/>
    <polygon points="1160,20 1180,10 1200,20 1200,40 1180,50 1160,40"/>
    <polygon points="1200,20 1220,10 1240,20 1240,40 1220,50 1200,40"/>
    <!-- Row 2 (offset) -->
    <polygon points="60,50 80,40 100,50 100,70 80,80 60,70"/>
    <polygon points="100,50 120,40 140,50 140,70 120,80 100,70"/>
    <polygon points="140,50 160,40 180,50 180,70 160,80 140,70"/>
    <polygon points="180,50 200,40 220,50 220,70 200,80 180,70"/>
    <polygon points="220,50 240,40 260,50 260,70 240,80 220,70"/>
    <polygon points="260,50 280,40 300,50 300,70 280,80 260,70"/>
    <polygon points="300,50 320,40 340,50 340,70 320,80 300,70"/>
    <polygon points="340,50 360,40 380,50 380,70 360,80 340,70"/>
    <polygon points="380,50 400,40 420,50 420,70 400,80 380,70"/>
    <polygon points="420,50 440,40 460,50 460,70 440,80 420,70"/>
    <polygon points="460,50 480,40 500,50 500,70 480,80 460,70"/>
    <polygon points="500,50 520,40 540,50 540,70 520,80 500,70"/>
    <polygon points="540,50 560,40 580,50 580,70 560,80 540,70"/>
    <polygon points="580,50 600,40 620,50 620,70 600,80 580,70"/>
    <polygon points="620,50 640,40 660,50 660,70 640,80 620,70"/>
    <polygon points="660,50 680,40 700,50 700,70 680,80 660,70"/>
    <polygon points="700,50 720,40 740,50 740,70 720,80 700,70"/>
    <polygon points="740,50 760,40 780,50 780,70 760,80 740,70"/>
    <polygon points="780,50 800,40 820,50 820,70 800,80 780,70"/>
    <polygon points="820,50 840,40 860,50 860,70 840,80 820,70"/>
    <polygon points="860,50 880,40 900,50 900,70 880,80 860,70"/>
    <polygon points="900,50 920,40 940,50 940,70 920,80 900,70"/>
    <polygon points="940,50 960,40 980,50 980,70 960,80 940,70"/>
    <polygon points="980,50 1000,40 1020,50 1020,70 1000,80 980,70"/>
    <polygon points="1020,50 1040,40 1060,50 1060,70 1040,80 1020,70"/>
    <polygon points="1060,50 1080,40 1100,50 1100,70 1080,80 1060,70"/>
    <polygon points="1100,50 1120,40 1140,50 1140,70 1120,80 1100,70"/>
    <polygon points="1140,50 1160,40 1180,50 1180,70 1160,80 1140,70"/>
    <polygon points="1180,50 1200,40 1220,50 1220,70 1200,80 1180,70"/>
    <!-- Row 3 -->
    <polygon points="40,80 60,70 80,80 80,100 60,110 40,100"/>
    <polygon points="80,80 100,70 120,80 120,100 100,110 80,100"/>
    <polygon points="120,80 140,70 160,80 160,100 140,110 120,100"/>
    <polygon points="160,80 180,70 200,80 200,100 180,110 160,100"/>
    <polygon points="200,80 220,70 240,80 240,100 220,110 200,100"/>
    <polygon points="240,80 260,70 280,80 280,100 260,110 240,100"/>
    <polygon points="280,80 300,70 320,80 320,100 300,110 280,100"/>
    <polygon points="320,80 340,70 360,80 360,100 340,110 320,100"/>
    <polygon points="360,80 380,70 400,80 400,100 380,110 360,100"/>
    <polygon points="400,80 420,70 440,80 440,100 420,110 400,100"/>
    <polygon points="440,80 460,70 480,80 480,100 460,110 440,100"/>
    <polygon points="480,80 500,70 520,80 520,100 500,110 480,100"/>
    <polygon points="520,80 540,70 560,80 560,100 540,110 520,100"/>
    <polygon points="560,80 580,70 600,80 600,100 580,110 560,100"/>
    <polygon points="600,80 620,70 640,80 640,100 620,110 600,100"/>
    <polygon points="640,80 660,70 680,80 680,100 660,110 640,100"/>
    <polygon points="680,80 700,70 720,80 720,100 700,110 680,100"/>
    <polygon points="720,80 740,70 760,80 760,100 740,110 720,100"/>
    <polygon points="760,80 780,70 800,80 800,100 780,110 760,100"/>
    <polygon points="800,80 820,70 840,80 840,100 820,110 800,100"/>
    <polygon points="840,80 860,70 880,80 880,100 860,110 840,100"/>
    <polygon points="880,80 900,70 920,80 920,100 900,110 880,100"/>
    <polygon points="920,80 940,70 960,80 960,100 940,110 920,100"/>
    <polygon points="960,80 980,70 1000,80 1000,100 980,110 960,100"/>
    <polygon points="1000,80 1020,70 1040,80 1040,100 1020,110 1000,100"/>
    <polygon points="1040,80 1060,70 1080,80 1080,100 1060,110 1040,100"/>
    <polygon points="1080,80 1100,70 1120,80 1120,100 1100,110 1080,100"/>
    <polygon points="1120,80 1140,70 1160,80 1160,100 1140,110 1120,100"/>
    <polygon points="1160,80 1180,70 1200,80 1200,100 1180,110 1160,100"/>
    <polygon points="1200,80 1220,70 1240,80 1240,100 1220,110 1200,100"/>
    <!-- Rows 4-10 (repeating pattern to fill background) -->
    <polygon points="60,110 80,100 100,110 100,130 80,140 60,130"/>
    <polygon points="140,110 160,100 180,110 180,130 160,140 140,130"/>
    <polygon points="220,110 240,100 260,110 260,130 240,140 220,130"/>
    <polygon points="300,110 320,100 340,110 340,130 320,140 300,130"/>
    <polygon points="380,110 400,100 420,110 420,130 400,140 380,130"/>
    <polygon points="460,110 480,100 500,110 500,130 480,140 460,130"/>
    <polygon points="540,110 560,100 580,110 580,130 560,140 540,130"/>
    <polygon points="620,110 640,100 660,110 660,130 640,140 620,130"/>
    <polygon points="700,110 720,100 740,110 740,130 720,140 700,130"/>
    <polygon points="780,110 800,100 820,110 820,130 800,140 780,130"/>
    <polygon points="860,110 880,100 900,110 900,130 880,140 860,130"/>
    <polygon points="940,110 960,100 980,110 980,130 960,140 940,130"/>
    <polygon points="1020,110 1040,100 1060,110 1060,130 1040,140 1020,130"/>
    <polygon points="1100,110 1120,100 1140,110 1140,130 1120,140 1100,130"/>
    <polygon points="1180,110 1200,100 1220,110 1220,130 1200,140 1180,130"/>
    <!-- Sparse rows continuing down -->
    <polygon points="40,140 60,130 80,140 80,160 60,170 40,160"/>
    <polygon points="160,140 180,130 200,140 200,160 180,170 160,160"/>
    <polygon points="280,140 300,130 320,140 320,160 300,170 280,160"/>
    <polygon points="400,140 420,130 440,140 440,160 420,170 400,160"/>
    <polygon points="520,140 540,130 560,140 560,160 540,170 520,160"/>
    <polygon points="640,140 660,130 680,140 680,160 660,170 640,160"/>
    <polygon points="760,140 780,130 800,140 800,160 780,170 760,160"/>
    <polygon points="880,140 900,130 920,140 920,160 900,170 880,160"/>
    <polygon points="1000,140 1020,130 1040,140 1040,160 1020,170 1000,160"/>
    <polygon points="1120,140 1140,130 1160,140 1160,160 1140,170 1120,160"/>
    <polygon points="1240,140 1260,130 1280,140 1280,160 1260,170 1240,160"/>
    <!-- Bottom rows -->
    <polygon points="60,470 80,460 100,470 100,490 80,500 60,490"/>
    <polygon points="180,470 200,460 220,470 220,490 200,500 180,490"/>
    <polygon points="300,470 320,460 340,470 340,490 320,500 300,490"/>
    <polygon points="420,470 440,460 460,470 460,490 440,500 420,490"/>
    <polygon points="540,470 560,460 580,470 580,490 560,500 540,490"/>
    <polygon points="660,470 680,460 700,470 700,490 680,500 660,490"/>
    <polygon points="780,470 800,460 820,470 820,490 800,500 780,490"/>
    <polygon points="900,470 920,460 940,470 940,490 920,500 900,490"/>
    <polygon points="1020,470 1040,460 1060,470 1060,490 1040,500 1020,490"/>
    <polygon points="1140,470 1160,460 1180,470 1180,490 1160,500 1140,490"/>
    <polygon points="40,500 60,490 80,500 80,520 60,530 40,520"/>
    <polygon points="160,500 180,490 200,500 200,520 180,530 160,520"/>
    <polygon points="280,500 300,490 320,500 320,520 300,530 280,520"/>
    <polygon points="400,500 420,490 440,500 440,520 420,530 400,520"/>
    <polygon points="520,500 540,490 560,500 560,520 540,530 520,520"/>
    <polygon points="640,500 660,490 680,500 680,520 660,530 640,520"/>
    <polygon points="760,500 780,490 800,500 800,520 780,530 760,520"/>
    <polygon points="880,500 900,490 920,500 920,520 900,530 880,520"/>
    <polygon points="1000,500 1020,490 1040,500 1040,520 1020,530 1000,520"/>
    <polygon points="1120,500 1140,490 1160,500 1160,520 1140,530 1120,520"/>
    <polygon points="60,530 80,520 100,530 100,550 80,560 60,550"/>
    <polygon points="180,530 200,520 220,530 220,550 200,560 180,550"/>
    <polygon points="300,530 320,520 340,530 340,550 320,560 300,550"/>
    <polygon points="420,530 440,520 460,530 460,550 440,560 420,550"/>
    <polygon points="540,530 560,520 580,530 580,550 560,560 540,550"/>
    <polygon points="660,530 680,520 700,530 700,550 680,560 660,550"/>
    <polygon points="780,530 800,520 820,530 820,550 800,560 780,550"/>
    <polygon points="900,530 920,520 940,530 940,550 920,560 900,550"/>
    <polygon points="1020,530 1040,520 1060,530 1060,550 1040,560 1020,550"/>
    <polygon points="1140,530 1160,520 1180,530 1180,550 1160,560 1140,550"/>
    <polygon points="40,560 60,550 80,560 80,580 60,590 40,580"/>
    <polygon points="160,560 180,550 200,560 200,580 180,590 160,580"/>
    <polygon points="280,560 300,550 320,560 320,580 300,590 280,580"/>
    <polygon points="400,560 420,550 440,560 440,580 420,590 400,580"/>
    <polygon points="520,560 540,550 560,560 560,580 540,590 520,580"/>
    <polygon points="640,560 660,550 680,560 680,580 660,590 640,580"/>
    <polygon points="760,560 780,550 800,560 800,580 780,590 760,580"/>
    <polygon points="880,560 900,550 920,560 920,580 900,590 880,580"/>
    <polygon points="1000,560 1020,550 1040,560 1040,580 1020,590 1000,580"/>
    <polygon points="1120,560 1140,550 1160,560 1160,580 1140,590 1120,580"/>
    <polygon points="60,590 80,580 100,590 100,610 80,620 60,610"/>
    <polygon points="180,590 200,580 220,590 220,610 200,620 180,610"/>
    <polygon points="300,590 320,580 340,590 340,610 320,620 300,610"/>
    <polygon points="420,590 440,580 460,590 460,610 440,620 420,610"/>
    <polygon points="540,590 560,580 580,590 580,610 560,620 540,610"/>
    <polygon points="660,590 680,580 700,590 700,610 680,620 660,610"/>
    <polygon points="780,590 800,580 820,590 820,610 800,620 780,610"/>
    <polygon points="900,590 920,580 940,590 940,610 920,620 900,610"/>
    <polygon points="1020,590 1040,580 1060,590 1060,610 1040,620 1020,610"/>
    <polygon points="1140,590 1160,580 1180,590 1180,610 1160,620 1140,610"/>
  </g>

  <!-- Low-poly canary bird — facing right, centred at ~380,310 -->
  <g transform="translate(280, 200)">
    <!-- Tail feathers -->
    <polygon points="10,130 0,170 40,160 50,130" fill="#d97706"/>
    <polygon points="10,130 40,160 60,140 50,120" fill="url(#goldDark)"/>

    <!-- Body (lower) -->
    <polygon points="50,120 60,140 120,160 140,140 130,110" fill="url(#goldDark)"/>
    <polygon points="50,120 130,110 120,90 70,95" fill="url(#gold)"/>

    <!-- Body (upper / back) -->
    <polygon points="70,95 120,90 140,70 100,60" fill="url(#gold)"/>
    <polygon points="100,60 140,70 160,60 140,45" fill="url(#goldLight)"/>

    <!-- Belly -->
    <polygon points="120,160 140,140 170,145 160,165" fill="#d97706"/>
    <polygon points="140,140 130,110 160,100 170,130 170,145" fill="url(#goldDark)"/>

    <!-- Chest (bright) -->
    <polygon points="130,110 160,100 170,80 150,70 140,70 120,90" fill="url(#goldLight)"/>

    <!-- Wing -->
    <polygon points="70,100 55,130 90,150 130,140 120,110 90,95" fill="#b45309" opacity="0.6"/>
    <polygon points="70,100 90,95 120,110 100,120 75,115" fill="#d97706" opacity="0.5"/>

    <!-- Head -->
    <polygon points="150,70 170,80 190,65 185,45 160,40 140,45" fill="url(#goldLight)"/>
    <polygon points="160,40 185,45 180,30 155,30" fill="url(#gold)"/>

    <!-- Beak (open, speaking) -->
    <polygon points="190,50 210,48 195,55" fill="#92400e"/>
    <polygon points="190,58 210,62 195,55" fill="#78350f"/>

    <!-- Eye -->
    <circle cx="172" cy="48" r="5" fill="#0f172a"/>
    <circle cx="173" cy="47" r="1.5" fill="#f8fafc"/>

    <!-- Legs (centred under body mass) -->
    <line x1="115" y1="155" x2="112" y2="195" stroke="#92400e" stroke-width="2.5" stroke-linecap="round"/>
    <line x1="135" y1="158" x2="133" y2="195" stroke="#92400e" stroke-width="2.5" stroke-linecap="round"/>
    <!-- Feet -->
    <line x1="112" y1="195" x2="102" y2="198" stroke="#92400e" stroke-width="2" stroke-linecap="round"/>
    <line x1="112" y1="195" x2="118" y2="200" stroke="#92400e" stroke-width="2" stroke-linecap="round"/>
    <line x1="133" y1="195" x2="125" y2="198" stroke="#92400e" stroke-width="2" stroke-linecap="round"/>
    <line x1="133" y1="195" x2="139" y2="200" stroke="#92400e" stroke-width="2" stroke-linecap="round"/>
  </g>

  <!-- Sound waves from beak -->
  <g transform="translate(490, 248)" stroke="#fbbf24" fill="none" stroke-linecap="round">
    <path d="M 0,0 Q 15,-12 15,-25 Q 15,-38 0,-50" stroke-width="3" opacity="0.7"/>
    <path d="M 12,8 Q 32,-12 32,-30 Q 32,-48 12,-68" stroke-width="2.5" opacity="0.45"/>
    <path d="M 24,16 Q 50,-12 50,-35 Q 50,-58 24,-86" stroke-width="2" opacity="0.25"/>
  </g>

  <!-- Divider -->
  <g transform="translate(590, 220)">
    <line x1="0" y1="0" x2="0" y2="200" stroke="#334155" stroke-width="1" opacity="0.5"/>
    <line x1="6" y1="0" x2="6" y2="200" stroke="#334155" stroke-width="1" opacity="0.5"/>
    <!-- Padlock icon -->
    <g transform="translate(-5, 85)" fill="none" stroke="#64748b" stroke-width="1.5">
      <rect x="0" y="12" width="16" height="12" rx="2" fill="#1e293b" stroke="#64748b"/>
      <path d="M 3,12 L 3,8 Q 3,2 8,2 Q 13,2 13,8 L 13,12"/>
      <circle cx="8" cy="19" r="1.5" fill="#64748b"/>
    </g>
  </g>

  <!-- Text: canary-kit -->
<g fill="#f8fafc">
    <path d="M703 215Q768 215 825.5 240.5Q883 266 940 306L1081 106Q1011 46 910.5 6.0Q810 -34 686 -34Q515 -34 392.0 36.5Q269 107 203.0 232.5Q137 358 137 524Q137 690 204.5 819.5Q272 949 396.5 1023.0Q521 1097 692 1097Q813 1097 907.5 1063.5Q1002 1030 1081 964L944 774Q890 812 830.0 833.0Q770 854 705 854Q598 854 532.5 778.5Q467 703 467 524Q467 407 498.0 339.5Q529 272 582.5 243.5Q636 215 703 215Z" transform="translate(660.0,310) scale(0.032000,-0.032000)"/>
    <path d="M1034 306Q1034 246 1050.5 219.0Q1067 192 1104 178L1039 -30Q945 -21 880.5 11.5Q816 44 779 110Q718 37 623.0 1.5Q528 -34 429 -34Q265 -34 167.5 59.5Q70 153 70 300Q70 473 205.5 567.0Q341 661 587 661H730V701Q730 784 676.5 824.0Q623 864 520 864Q469 864 389.0 849.5Q309 835 229 808L156 1018Q259 1057 370.5 1077.0Q482 1097 570 1097Q807 1097 920.5 1000.5Q1034 904 1034 722ZM538 192Q589 192 645.0 222.5Q701 253 730 309V481H652Q520 481 458.0 440.5Q396 400 396 322Q396 261 433.5 226.5Q471 192 538 192Z" transform="translate(698.4,310) scale(0.032000,-0.032000)"/>
    <path d="M140 0V1062H416L438 939Q509 1019 588.0 1058.0Q667 1097 768 1097Q904 1097 982.0 1014.0Q1060 931 1060 780V0H744V689Q744 754 735.0 792.5Q726 831 703.5 847.5Q681 864 642 864Q609 864 577.5 849.5Q546 835 516.0 808.0Q486 781 456 743V0Z" transform="translate(736.8,310) scale(0.032000,-0.032000)"/>
    <path d="M1034 306Q1034 246 1050.5 219.0Q1067 192 1104 178L1039 -30Q945 -21 880.5 11.5Q816 44 779 110Q718 37 623.0 1.5Q528 -34 429 -34Q265 -34 167.5 59.5Q70 153 70 300Q70 473 205.5 567.0Q341 661 587 661H730V701Q730 784 676.5 824.0Q623 864 520 864Q469 864 389.0 849.5Q309 835 229 808L156 1018Q259 1057 370.5 1077.0Q482 1097 570 1097Q807 1097 920.5 1000.5Q1034 904 1034 722ZM538 192Q589 192 645.0 222.5Q701 253 730 309V481H652Q520 481 458.0 440.5Q396 400 396 322Q396 261 433.5 226.5Q471 192 538 192Z" transform="translate(775.2,310) scale(0.032000,-0.032000)"/>
    <path d="M150 0V212H290V852H150V1062H531L589 823Q646 960 734.5 1027.0Q823 1094 951 1094Q1005 1094 1047.0 1085.5Q1089 1077 1126 1062L1030 801Q1001 809 972.0 813.0Q943 817 908 817Q804 817 725.5 732.0Q647 647 606 516V212H816V0ZM869 618V928L916 1062H1126L1067 618Z" transform="translate(813.6,310) scale(0.032000,-0.032000)"/>
    <path d="M1144 1062 790 0Q743 -141 665.5 -236.5Q588 -332 472.5 -384.0Q357 -436 195 -445L159 -222Q264 -209 328.5 -183.0Q393 -157 432.5 -112.5Q472 -68 501 0H393L56 1062H390L596 202L820 1062Z" transform="translate(852.0,310) scale(0.032000,-0.032000)"/>
    <path d="M167 503V749H1033V503Z" transform="translate(890.4,310) scale(0.032000,-0.032000)"/>
    <path d="M1148 1062 799 592 1177 0H817L468 582L817 1062ZM456 1517V0H140V1484Z" transform="translate(928.8,310) scale(0.032000,-0.032000)"/>
    <path d="M789 1062V216H1059V0H172V216H473V846H182V1062ZM598 1618Q680 1618 732.0 1567.0Q784 1516 784 1440Q784 1364 732.0 1312.5Q680 1261 598 1261Q515 1261 462.5 1312.5Q410 1364 410 1440Q410 1516 462.5 1567.0Q515 1618 598 1618Z" transform="translate(967.2,310) scale(0.032000,-0.032000)"/>
    <path d="M1096 62Q1034 22 946.0 -6.0Q858 -34 748 -34Q540 -34 439.0 72.5Q338 179 338 362V844H115V1062H338V1292L654 1330V1062H996L965 844H654V362Q654 283 690.0 249.0Q726 215 805 215Q861 215 907.5 228.5Q954 242 991 263Z" transform="translate(1005.6,310) scale(0.032000,-0.032000)"/>
  </g>

  <!-- Tagline -->
<g fill="#94a3b8">
    <path d="M538 -24Q423 -24 333.5 9.5Q244 43 186.0 109.0Q128 175 108 271L279 312Q303 220 369.5 177.0Q436 134 536 134Q653 134 722.5 184.0Q792 234 792 303Q792 361 751.5 399.5Q711 438 628 457L442 501Q290 537 216.0 612.5Q142 688 142 806Q142 902 196.0 975.5Q250 1049 343.5 1090.5Q437 1132 556 1132Q671 1132 751.5 1097.5Q832 1063 882.5 1002.5Q933 942 958 863L795 821Q772 881 718.5 930.0Q665 979 557 979Q457 979 390.5 933.0Q324 887 324 817Q324 755 369.0 717.5Q414 680 512 657L681 617Q833 581 906.0 505.5Q979 430 979 315Q979 217 923.5 140.5Q868 64 768.5 20.0Q669 -24 538 -24Z" transform="translate(660.0,350) scale(0.010742,-0.010742)"/>
    <path d="M158 -418V1118H332V939H352Q371 969 405.0 1014.5Q439 1060 503.0 1096.0Q567 1132 676 1132Q816 1132 922.5 1062.0Q1029 992 1089.5 862.5Q1150 733 1150 556Q1150 378 1090.0 248.0Q1030 118 923.5 47.0Q817 -24 677 -24Q571 -24 506.0 12.5Q441 49 406.0 95.5Q371 142 352 173H338V-418ZM650 137Q755 137 825.5 193.5Q896 250 931.5 345.5Q967 441 967 558Q967 674 932.0 767.5Q897 861 826.5 916.0Q756 971 650 971Q547 971 477.0 919.0Q407 867 371.5 774.5Q336 682 336 558Q336 434 372.0 339.0Q408 244 478.5 190.5Q549 137 650 137Z" transform="translate(671.6,350) scale(0.010742,-0.010742)"/>
    <path d="M613 -24Q461 -24 346.5 48.0Q232 120 168.0 250.0Q104 380 104 552Q104 727 168.0 857.5Q232 988 346.5 1060.0Q461 1132 613 1132Q766 1132 881.0 1060.0Q996 988 1060.0 857.5Q1124 727 1124 552Q1124 380 1060.0 250.0Q996 120 881.0 48.0Q766 -24 613 -24ZM613 137Q726 137 799.0 195.0Q872 253 907.0 347.5Q942 442 942 552Q942 663 907.0 758.5Q872 854 799.0 912.5Q726 971 613 971Q501 971 429.0 912.5Q357 854 322.0 759.0Q287 664 287 552Q287 442 322.0 347.5Q357 253 429.0 195.0Q501 137 613 137Z" transform="translate(685.1,350) scale(0.010742,-0.010742)"/>
    <path d="M327 402V625H360L838 1118H1061L544 587H524ZM158 0V1490H338V0ZM865 0 437 547 565 674 1096 0Z" transform="translate(698.3,350) scale(0.010742,-0.010742)"/>
    <path d="M628 -24Q466 -24 348.5 48.0Q231 120 167.5 249.0Q104 378 104 550Q104 722 166.0 853.0Q228 984 341.5 1058.0Q455 1132 607 1132Q696 1132 782.5 1102.5Q869 1073 939.5 1007.5Q1010 942 1052.0 835.0Q1094 728 1094 573V498H226V650H997L913 594Q913 704 878.5 789.5Q844 875 776.0 923.5Q708 972 607 972Q506 972 434.0 922.5Q362 873 324.0 793.5Q286 714 286 623V522Q286 398 329.0 311.5Q372 225 449.5 180.5Q527 136 629 136Q695 136 749.0 155.0Q803 174 842.0 212.5Q881 251 902 308L1076 260Q1050 176 988.0 112.0Q926 48 834.5 12.0Q743 -24 628 -24Z" transform="translate(710.3,350) scale(0.010742,-0.010742)"/>
    <path d="M338 670V0H158V1118H331L332 847H307Q358 1002 452.5 1067.0Q547 1132 674 1132Q787 1132 872.0 1085.5Q957 1039 1004.5 945.5Q1052 852 1052 710V0H872V695Q872 824 804.5 897.0Q737 970 620 970Q540 970 476.0 935.0Q412 900 375.0 833.0Q338 766 338 670Z" transform="translate(723.2,350) scale(0.010742,-0.010742)"/>
    <path d="M538 -24Q423 -24 333.5 9.5Q244 43 186.0 109.0Q128 175 108 271L279 312Q303 220 369.5 177.0Q436 134 536 134Q653 134 722.5 184.0Q792 234 792 303Q792 361 751.5 399.5Q711 438 628 457L442 501Q290 537 216.0 612.5Q142 688 142 806Q142 902 196.0 975.5Q250 1049 343.5 1090.5Q437 1132 556 1132Q671 1132 751.5 1097.5Q832 1063 882.5 1002.5Q933 942 958 863L795 821Q772 881 718.5 930.0Q665 979 557 979Q457 979 390.5 933.0Q324 887 324 817Q324 755 369.0 717.5Q414 680 512 657L681 617Q833 581 906.0 505.5Q979 430 979 315Q979 217 923.5 140.5Q868 64 768.5 20.0Q669 -24 538 -24Z" transform="translate(742.4,350) scale(0.010742,-0.010742)"/>
    <path d="M628 -24Q466 -24 348.5 48.0Q231 120 167.5 249.0Q104 378 104 550Q104 722 166.0 853.0Q228 984 341.5 1058.0Q455 1132 607 1132Q696 1132 782.5 1102.5Q869 1073 939.5 1007.5Q1010 942 1052.0 835.0Q1094 728 1094 573V498H226V650H997L913 594Q913 704 878.5 789.5Q844 875 776.0 923.5Q708 972 607 972Q506 972 434.0 922.5Q362 873 324.0 793.5Q286 714 286 623V522Q286 398 329.0 311.5Q372 225 449.5 180.5Q527 136 629 136Q695 136 749.0 155.0Q803 174 842.0 212.5Q881 251 902 308L1076 260Q1050 176 988.0 112.0Q926 48 834.5 12.0Q743 -24 628 -24Z" transform="translate(754.0,350) scale(0.010742,-0.010742)"/>
    <path d="M613 -24Q461 -24 346.5 48.0Q232 120 168.0 250.0Q104 380 104 552Q104 727 168.0 857.5Q232 988 346.5 1060.0Q461 1132 613 1132Q694 1132 766.0 1111.0Q838 1090 897.5 1050.5Q957 1011 1000.0 953.5Q1043 896 1066 823L893 774Q881 817 856.0 853.0Q831 889 795.5 915.5Q760 942 714.0 956.5Q668 971 613 971Q501 971 429.0 912.5Q357 854 322.0 759.0Q287 664 287 552Q287 442 322.0 347.5Q357 253 429.0 195.0Q501 137 613 137Q669 137 716.0 152.0Q763 167 799.5 194.5Q836 222 861.0 260.0Q886 298 898 343L1070 294Q1048 219 1004.5 160.5Q961 102 901.0 60.5Q841 19 768.0 -2.5Q695 -24 613 -24Z" transform="translate(766.8,350) scale(0.010742,-0.010742)"/>
    <path d="M158 0V1118H332V946H344Q375 1031 454.5 1082.5Q534 1134 634 1134Q654 1134 681.5 1133.0Q709 1132 725 1131V950Q717 952 685.0 956.0Q653 960 617 960Q537 960 473.5 926.5Q410 893 374.0 834.5Q338 776 338 700V0Z" transform="translate(779.4,350) scale(0.010742,-0.010742)"/>
    <path d="M628 -24Q466 -24 348.5 48.0Q231 120 167.5 249.0Q104 378 104 550Q104 722 166.0 853.0Q228 984 341.5 1058.0Q455 1132 607 1132Q696 1132 782.5 1102.5Q869 1073 939.5 1007.5Q1010 942 1052.0 835.0Q1094 728 1094 573V498H226V650H997L913 594Q913 704 878.5 789.5Q844 875 776.0 923.5Q708 972 607 972Q506 972 434.0 922.5Q362 873 324.0 793.5Q286 714 286 623V522Q286 398 329.0 311.5Q372 225 449.5 180.5Q527 136 629 136Q695 136 749.0 155.0Q803 174 842.0 212.5Q881 251 902 308L1076 260Q1050 176 988.0 112.0Q926 48 834.5 12.0Q743 -24 628 -24Z" transform="translate(787.6,350) scale(0.010742,-0.010742)"/>
    <path d="M598 1118V964H20V1118ZM188 1384H368V290Q368 215 398.5 180.5Q429 146 500 146Q517 146 543.5 150.0Q570 154 592 158L629 6Q601 -4 565.5 -9.0Q530 -14 495 -14Q350 -14 269.0 62.5Q188 139 188 276Z" transform="translate(800.5,350) scale(0.010742,-0.010742)"/>
    <path d="M538 -24Q423 -24 333.5 9.5Q244 43 186.0 109.0Q128 175 108 271L279 312Q303 220 369.5 177.0Q436 134 536 134Q653 134 722.5 184.0Q792 234 792 303Q792 361 751.5 399.5Q711 438 628 457L442 501Q290 537 216.0 612.5Q142 688 142 806Q142 902 196.0 975.5Q250 1049 343.5 1090.5Q437 1132 556 1132Q671 1132 751.5 1097.5Q832 1063 882.5 1002.5Q933 942 958 863L795 821Q772 881 718.5 930.0Q665 979 557 979Q457 979 390.5 933.0Q324 887 324 817Q324 755 369.0 717.5Q414 680 512 657L681 617Q833 581 906.0 505.5Q979 430 979 315Q979 217 923.5 140.5Q868 64 768.5 20.0Q669 -24 538 -24Z" transform="translate(807.7,350) scale(0.010742,-0.010742)"/>
    <path d="M295 -13Q239 -13 199.5 26.5Q160 66 160 122Q160 178 199.5 217.5Q239 257 295 257Q351 257 390.5 217.5Q430 178 430 122Q430 66 390.5 26.5Q351 -13 295 -13Z" transform="translate(819.3,350) scale(0.010742,-0.010742)"/>
    <path d="M538 -24Q423 -24 333.5 9.5Q244 43 186.0 109.0Q128 175 108 271L279 312Q303 220 369.5 177.0Q436 134 536 134Q653 134 722.5 184.0Q792 234 792 303Q792 361 751.5 399.5Q711 438 628 457L442 501Q290 537 216.0 612.5Q142 688 142 806Q142 902 196.0 975.5Q250 1049 343.5 1090.5Q437 1132 556 1132Q671 1132 751.5 1097.5Q832 1063 882.5 1002.5Q933 942 958 863L795 821Q772 881 718.5 930.0Q665 979 557 979Q457 979 390.5 933.0Q324 887 324 817Q324 755 369.0 717.5Q414 680 512 657L681 617Q833 581 906.0 505.5Q979 430 979 315Q979 217 923.5 140.5Q868 64 768.5 20.0Q669 -24 538 -24Z" transform="translate(831.8,350) scale(0.010742,-0.010742)"/>
    <path d="M158 0V1118H338V0ZM249 1301Q198 1301 161.0 1336.0Q124 1371 124 1420Q124 1470 161.0 1504.5Q198 1539 249 1539Q301 1539 338.0 1504.5Q375 1470 375 1420Q375 1371 338.0 1336.0Q301 1301 249 1301Z" transform="translate(843.4,350) scale(0.010742,-0.010742)"/>
    <path d="M338 1490V0H158V1490Z" transform="translate(848.8,350) scale(0.010742,-0.010742)"/>
    <path d="M628 -24Q466 -24 348.5 48.0Q231 120 167.5 249.0Q104 378 104 550Q104 722 166.0 853.0Q228 984 341.5 1058.0Q455 1132 607 1132Q696 1132 782.5 1102.5Q869 1073 939.5 1007.5Q1010 942 1052.0 835.0Q1094 728 1094 573V498H226V650H997L913 594Q913 704 878.5 789.5Q844 875 776.0 923.5Q708 972 607 972Q506 972 434.0 922.5Q362 873 324.0 793.5Q286 714 286 623V522Q286 398 329.0 311.5Q372 225 449.5 180.5Q527 136 629 136Q695 136 749.0 155.0Q803 174 842.0 212.5Q881 251 902 308L1076 260Q1050 176 988.0 112.0Q926 48 834.5 12.0Q743 -24 628 -24Z" transform="translate(854.1,350) scale(0.010742,-0.010742)"/>
    <path d="M338 670V0H158V1118H331L332 847H307Q358 1002 452.5 1067.0Q547 1132 674 1132Q787 1132 872.0 1085.5Q957 1039 1004.5 945.5Q1052 852 1052 710V0H872V695Q872 824 804.5 897.0Q737 970 620 970Q540 970 476.0 935.0Q412 900 375.0 833.0Q338 766 338 670Z" transform="translate(866.9,350) scale(0.010742,-0.010742)"/>
    <path d="M598 1118V964H20V1118ZM188 1384H368V290Q368 215 398.5 180.5Q429 146 500 146Q517 146 543.5 150.0Q570 154 592 158L629 6Q601 -4 565.5 -9.0Q530 -14 495 -14Q350 -14 269.0 62.5Q188 139 188 276Z" transform="translate(879.9,350) scale(0.010742,-0.010742)"/>
    <path d="M471 -26Q365 -26 278.5 14.0Q192 54 141.0 131.0Q90 208 90 318Q90 414 128.0 474.0Q166 534 229.5 568.5Q293 603 370.0 620.0Q447 637 525 647Q625 660 688.0 667.0Q751 674 781.5 691.0Q812 708 812 749V755Q812 825 786.0 873.5Q760 922 708.0 948.0Q656 974 578 974Q498 974 441.0 949.0Q384 924 348.5 886.5Q313 849 295 810L122 867Q165 969 238.0 1026.5Q311 1084 399.0 1108.0Q487 1132 573 1132Q629 1132 700.5 1118.5Q772 1105 838.5 1065.0Q905 1025 948.5 946.5Q992 868 992 737V0H815V152H803Q784 113 742.0 71.5Q700 30 633.0 2.0Q566 -26 471 -26ZM502 133Q602 133 671.0 172.0Q740 211 776.0 273.5Q812 336 812 404V559Q801 546 764.0 535.5Q727 525 679.5 517.0Q632 509 587.5 503.5Q543 498 517 495Q452 487 395.5 467.5Q339 448 305.0 410.5Q271 373 271 309Q271 251 301.0 212.0Q331 173 383.0 153.0Q435 133 502 133Z" transform="translate(893.3,350) scale(0.010742,-0.010742)"/>
    <path d="M338 1490V0H158V1490Z" transform="translate(905.6,350) scale(0.010742,-0.010742)"/>
    <path d="M628 -24Q466 -24 348.5 48.0Q231 120 167.5 249.0Q104 378 104 550Q104 722 166.0 853.0Q228 984 341.5 1058.0Q455 1132 607 1132Q696 1132 782.5 1102.5Q869 1073 939.5 1007.5Q1010 942 1052.0 835.0Q1094 728 1094 573V498H226V650H997L913 594Q913 704 878.5 789.5Q844 875 776.0 923.5Q708 972 607 972Q506 972 434.0 922.5Q362 873 324.0 793.5Q286 714 286 623V522Q286 398 329.0 311.5Q372 225 449.5 180.5Q527 136 629 136Q695 136 749.0 155.0Q803 174 842.0 212.5Q881 251 902 308L1076 260Q1050 176 988.0 112.0Q926 48 834.5 12.0Q743 -24 628 -24Z" transform="translate(911.0,350) scale(0.010742,-0.010742)"/>
    <path d="M158 0V1118H332V946H344Q375 1031 454.5 1082.5Q534 1134 634 1134Q654 1134 681.5 1133.0Q709 1132 725 1131V950Q717 952 685.0 956.0Q653 960 617 960Q537 960 473.5 926.5Q410 893 374.0 834.5Q338 776 338 700V0Z" transform="translate(923.8,350) scale(0.010742,-0.010742)"/>
    <path d="M598 1118V964H20V1118ZM188 1384H368V290Q368 215 398.5 180.5Q429 146 500 146Q517 146 543.5 150.0Q570 154 592 158L629 6Q601 -4 565.5 -9.0Q530 -14 495 -14Q350 -14 269.0 62.5Q188 139 188 276Z" transform="translate(932.1,350) scale(0.010742,-0.010742)"/>
    <path d="M538 -24Q423 -24 333.5 9.5Q244 43 186.0 109.0Q128 175 108 271L279 312Q303 220 369.5 177.0Q436 134 536 134Q653 134 722.5 184.0Q792 234 792 303Q792 361 751.5 399.5Q711 438 628 457L442 501Q290 537 216.0 612.5Q142 688 142 806Q142 902 196.0 975.5Q250 1049 343.5 1090.5Q437 1132 556 1132Q671 1132 751.5 1097.5Q832 1063 882.5 1002.5Q933 942 958 863L795 821Q772 881 718.5 930.0Q665 979 557 979Q457 979 390.5 933.0Q324 887 324 817Q324 755 369.0 717.5Q414 680 512 657L681 617Q833 581 906.0 505.5Q979 430 979 315Q979 217 923.5 140.5Q868 64 768.5 20.0Q669 -24 538 -24Z" transform="translate(939.3,350) scale(0.010742,-0.010742)"/>
    <path d="M295 -13Q239 -13 199.5 26.5Q160 66 160 122Q160 178 199.5 217.5Q239 257 295 257Q351 257 390.5 217.5Q430 178 430 122Q430 66 390.5 26.5Q351 -13 295 -13Z" transform="translate(950.9,350) scale(0.010742,-0.010742)"/>
    <path d="M577 -24Q438 -24 331.0 47.0Q224 118 164.0 248.0Q104 378 104 556Q104 733 164.5 862.5Q225 992 332.0 1062.0Q439 1132 578 1132Q687 1132 751.0 1096.0Q815 1060 849.5 1014.5Q884 969 902 939H916V1490H1096V0H922V173H902Q884 142 848.5 95.5Q813 49 748.5 12.5Q684 -24 577 -24ZM604 137Q706 137 776.0 190.5Q846 244 882.0 339.0Q918 434 918 558Q918 682 882.5 774.5Q847 867 777.0 919.0Q707 971 604 971Q498 971 427.5 916.0Q357 861 322.0 767.5Q287 674 287 558Q287 441 322.5 345.5Q358 250 429.0 193.5Q500 137 604 137Z" transform="translate(963.4,350) scale(0.010742,-0.010742)"/>
    <path d="M628 -24Q466 -24 348.5 48.0Q231 120 167.5 249.0Q104 378 104 550Q104 722 166.0 853.0Q228 984 341.5 1058.0Q455 1132 607 1132Q696 1132 782.5 1102.5Q869 1073 939.5 1007.5Q1010 942 1052.0 835.0Q1094 728 1094 573V498H226V650H997L913 594Q913 704 878.5 789.5Q844 875 776.0 923.5Q708 972 607 972Q506 972 434.0 922.5Q362 873 324.0 793.5Q286 714 286 623V522Q286 398 329.0 311.5Q372 225 449.5 180.5Q527 136 629 136Q695 136 749.0 155.0Q803 174 842.0 212.5Q881 251 902 308L1076 260Q1050 176 988.0 112.0Q926 48 834.5 12.0Q743 -24 628 -24Z" transform="translate(976.9,350) scale(0.010742,-0.010742)"/>
    <path d="M471 -26Q365 -26 278.5 14.0Q192 54 141.0 131.0Q90 208 90 318Q90 414 128.0 474.0Q166 534 229.5 568.5Q293 603 370.0 620.0Q447 637 525 647Q625 660 688.0 667.0Q751 674 781.5 691.0Q812 708 812 749V755Q812 825 786.0 873.5Q760 922 708.0 948.0Q656 974 578 974Q498 974 441.0 949.0Q384 924 348.5 886.5Q313 849 295 810L122 867Q165 969 238.0 1026.5Q311 1084 399.0 1108.0Q487 1132 573 1132Q629 1132 700.5 1118.5Q772 1105 838.5 1065.0Q905 1025 948.5 946.5Q992 868 992 737V0H815V152H803Q784 113 742.0 71.5Q700 30 633.0 2.0Q566 -26 471 -26ZM502 133Q602 133 671.0 172.0Q740 211 776.0 273.5Q812 336 812 404V559Q801 546 764.0 535.5Q727 525 679.5 517.0Q632 509 587.5 503.5Q543 498 517 495Q452 487 395.5 467.5Q339 448 305.0 410.5Q271 373 271 309Q271 251 301.0 212.0Q331 173 383.0 153.0Q435 133 502 133Z" transform="translate(989.7,350) scale(0.010742,-0.010742)"/>
    <path d="M577 -24Q438 -24 331.0 47.0Q224 118 164.0 248.0Q104 378 104 556Q104 733 164.5 862.5Q225 992 332.0 1062.0Q439 1132 578 1132Q687 1132 751.0 1096.0Q815 1060 849.5 1014.5Q884 969 902 939H916V1490H1096V0H922V173H902Q884 142 848.5 95.5Q813 49 748.5 12.5Q684 -24 577 -24ZM604 137Q706 137 776.0 190.5Q846 244 882.0 339.0Q918 434 918 558Q918 682 882.5 774.5Q847 867 777.0 919.0Q707 971 604 971Q498 971 427.5 916.0Q357 861 322.0 767.5Q287 674 287 558Q287 441 322.5 345.5Q358 250 429.0 193.5Q500 137 604 137Z" transform="translate(1002.1,350) scale(0.010742,-0.010742)"/>
    <path d="M158 0V1118H333L334 868H320Q343 959 392.5 1018.5Q442 1078 508.5 1108.0Q575 1138 647 1138Q769 1138 844.5 1063.0Q920 988 942 866H918Q938 950 991.0 1011.0Q1044 1072 1119.5 1105.0Q1195 1138 1284 1138Q1381 1138 1461.0 1096.0Q1541 1054 1588.5 969.0Q1636 884 1636 754V0H1456V749Q1456 870 1388.0 922.0Q1320 974 1230 974Q1155 974 1100.5 942.5Q1046 911 1016.5 856.0Q987 801 987 730V0H807V767Q807 860 745.0 917.0Q683 974 588 974Q523 974 465.5 943.5Q408 913 373.0 853.0Q338 793 338 704V0Z" transform="translate(1021.7,350) scale(0.010742,-0.010742)"/>
    <path d="M471 -26Q365 -26 278.5 14.0Q192 54 141.0 131.0Q90 208 90 318Q90 414 128.0 474.0Q166 534 229.5 568.5Q293 603 370.0 620.0Q447 637 525 647Q625 660 688.0 667.0Q751 674 781.5 691.0Q812 708 812 749V755Q812 825 786.0 873.5Q760 922 708.0 948.0Q656 974 578 974Q498 974 441.0 949.0Q384 924 348.5 886.5Q313 849 295 810L122 867Q165 969 238.0 1026.5Q311 1084 399.0 1108.0Q487 1132 573 1132Q629 1132 700.5 1118.5Q772 1105 838.5 1065.0Q905 1025 948.5 946.5Q992 868 992 737V0H815V152H803Q784 113 742.0 71.5Q700 30 633.0 2.0Q566 -26 471 -26ZM502 133Q602 133 671.0 172.0Q740 211 776.0 273.5Q812 336 812 404V559Q801 546 764.0 535.5Q727 525 679.5 517.0Q632 509 587.5 503.5Q543 498 517 495Q452 487 395.5 467.5Q339 448 305.0 410.5Q271 373 271 309Q271 251 301.0 212.0Q331 173 383.0 153.0Q435 133 502 133Z" transform="translate(1041.0,350) scale(0.010742,-0.010742)"/>
    <path d="M338 670V0H158V1118H331L332 847H307Q358 1002 452.5 1067.0Q547 1132 674 1132Q787 1132 872.0 1085.5Q957 1039 1004.5 945.5Q1052 852 1052 710V0H872V695Q872 824 804.5 897.0Q737 970 620 970Q540 970 476.0 935.0Q412 900 375.0 833.0Q338 766 338 670Z" transform="translate(1053.3,350) scale(0.010742,-0.010742)"/>
    <path d="M160 923 248 1490H454L298 923Z" transform="translate(1066.3,350) scale(0.010742,-0.010742)"/>
    <path d="M538 -24Q423 -24 333.5 9.5Q244 43 186.0 109.0Q128 175 108 271L279 312Q303 220 369.5 177.0Q436 134 536 134Q653 134 722.5 184.0Q792 234 792 303Q792 361 751.5 399.5Q711 438 628 457L442 501Q290 537 216.0 612.5Q142 688 142 806Q142 902 196.0 975.5Q250 1049 343.5 1090.5Q437 1132 556 1132Q671 1132 751.5 1097.5Q832 1063 882.5 1002.5Q933 942 958 863L795 821Q772 881 718.5 930.0Q665 979 557 979Q457 979 390.5 933.0Q324 887 324 817Q324 755 369.0 717.5Q414 680 512 657L681 617Q833 581 906.0 505.5Q979 430 979 315Q979 217 923.5 140.5Q868 64 768.5 20.0Q669 -24 538 -24Z" transform="translate(1072.1,350) scale(0.010742,-0.010742)"/>
    <path d="M538 -24Q423 -24 333.5 9.5Q244 43 186.0 109.0Q128 175 108 271L279 312Q303 220 369.5 177.0Q436 134 536 134Q653 134 722.5 184.0Q792 234 792 303Q792 361 751.5 399.5Q711 438 628 457L442 501Q290 537 216.0 612.5Q142 688 142 806Q142 902 196.0 975.5Q250 1049 343.5 1090.5Q437 1132 556 1132Q671 1132 751.5 1097.5Q832 1063 882.5 1002.5Q933 942 958 863L795 821Q772 881 718.5 930.0Q665 979 557 979Q457 979 390.5 933.0Q324 887 324 817Q324 755 369.0 717.5Q414 680 512 657L681 617Q833 581 906.0 505.5Q979 430 979 315Q979 217 923.5 140.5Q868 64 768.5 20.0Q669 -24 538 -24Z" transform="translate(1089.9,350) scale(0.010742,-0.010742)"/>
    <path d="M409 0 70 1118H261L397 630Q425 530 457.0 403.5Q489 277 520 117H489Q519 270 550.0 397.0Q581 524 610 630L744 1118H936L1068 630Q1096 527 1126.5 400.5Q1157 274 1187 117H1155Q1187 272 1218.5 398.5Q1250 525 1279 630L1415 1118H1606L1267 0H1088L943 506Q921 583 900.0 663.0Q879 743 859.0 827.0Q839 911 818 998H858Q838 912 817.5 827.5Q797 743 776.0 662.0Q755 581 733 506L588 0Z" transform="translate(1101.5,350) scale(0.010742,-0.010742)"/>
    <path d="M158 0V1118H338V0ZM249 1301Q198 1301 161.0 1336.0Q124 1371 124 1420Q124 1470 161.0 1504.5Q198 1539 249 1539Q301 1539 338.0 1504.5Q375 1470 375 1420Q375 1371 338.0 1336.0Q301 1301 249 1301Z" transform="translate(1119.5,350) scale(0.010742,-0.010742)"/>
    <path d="M598 1118V964H20V1118ZM188 1384H368V290Q368 215 398.5 180.5Q429 146 500 146Q517 146 543.5 150.0Q570 154 592 158L629 6Q601 -4 565.5 -9.0Q530 -14 495 -14Q350 -14 269.0 62.5Q188 139 188 276Z" transform="translate(1124.8,350) scale(0.010742,-0.010742)"/>
    <path d="M613 -24Q461 -24 346.5 48.0Q232 120 168.0 250.0Q104 380 104 552Q104 727 168.0 857.5Q232 988 346.5 1060.0Q461 1132 613 1132Q694 1132 766.0 1111.0Q838 1090 897.5 1050.5Q957 1011 1000.0 953.5Q1043 896 1066 823L893 774Q881 817 856.0 853.0Q831 889 795.5 915.5Q760 942 714.0 956.5Q668 971 613 971Q501 971 429.0 912.5Q357 854 322.0 759.0Q287 664 287 552Q287 442 322.0 347.5Q357 253 429.0 195.0Q501 137 613 137Q669 137 716.0 152.0Q763 167 799.5 194.5Q836 222 861.0 260.0Q886 298 898 343L1070 294Q1048 219 1004.5 160.5Q961 102 901.0 60.5Q841 19 768.0 -2.5Q695 -24 613 -24Z" transform="translate(1132.0,350) scale(0.010742,-0.010742)"/>
    <path d="M338 670V0H158V1490H338V847H307Q358 1002 452.5 1067.0Q547 1132 674 1132Q787 1132 872.5 1085.5Q958 1039 1005.5 945.5Q1053 852 1053 710V0H872V695Q872 824 804.5 897.0Q737 970 620 970Q540 970 476.0 935.0Q412 900 375.0 833.0Q338 766 338 670Z" transform="translate(1144.6,350) scale(0.010742,-0.010742)"/>
    <path d="M295 -13Q239 -13 199.5 26.5Q160 66 160 122Q160 178 199.5 217.5Q239 257 295 257Q351 257 390.5 217.5Q430 178 430 122Q430 66 390.5 26.5Q351 -13 295 -13Z" transform="translate(1157.6,350) scale(0.010742,-0.010742)"/>
</g>

  <!-- Wordlist easter egg along bottom -->
<g opacity="0.06" fill="#94a3b8">
    <path d="M816 1517Q932 1517 1021.0 1498.5Q1110 1480 1180 1450L1093 1244Q1038 1265 980.0 1274.5Q922 1284 865 1284Q771 1284 730.5 1250.0Q690 1216 690 1137V995H1036L1001 776H690V0H376V776H153V995H376V1149Q376 1254 426.0 1337.0Q476 1420 574.0 1468.5Q672 1517 816 1517Z" transform="translate(40.0,628) scale(0.007000,-0.007000)"/>
    <path d="M1034 306Q1034 246 1050.5 219.0Q1067 192 1104 178L1039 -30Q945 -21 880.5 11.5Q816 44 779 110Q718 37 623.0 1.5Q528 -34 429 -34Q265 -34 167.5 59.5Q70 153 70 300Q70 473 205.5 567.0Q341 661 587 661H730V701Q730 784 676.5 824.0Q623 864 520 864Q469 864 389.0 849.5Q309 835 229 808L156 1018Q259 1057 370.5 1077.0Q482 1097 570 1097Q807 1097 920.5 1000.5Q1034 904 1034 722ZM538 192Q589 192 645.0 222.5Q701 253 730 309V481H652Q520 481 458.0 440.5Q396 400 396 322Q396 261 433.5 226.5Q471 192 538 192Z" transform="translate(48.4,628) scale(0.007000,-0.007000)"/>
    <path d="M694 1484V334Q694 270 730.5 242.5Q767 215 831 215Q872 215 910.0 224.5Q948 234 981 247L1057 36Q1003 8 927.0 -13.0Q851 -34 750 -34Q558 -34 468.0 76.5Q378 187 378 373V1268H65V1484Z" transform="translate(56.8,628) scale(0.007000,-0.007000)"/>
    <path d="M703 215Q768 215 825.5 240.5Q883 266 940 306L1081 106Q1011 46 910.5 6.0Q810 -34 686 -34Q515 -34 392.0 36.5Q269 107 203.0 232.5Q137 358 137 524Q137 690 204.5 819.5Q272 949 396.5 1023.0Q521 1097 692 1097Q813 1097 907.5 1063.5Q1002 1030 1081 964L944 774Q890 812 830.0 833.0Q770 854 705 854Q598 854 532.5 778.5Q467 703 467 524Q467 407 498.0 339.5Q529 272 582.5 243.5Q636 215 703 215Z" transform="translate(65.2,628) scale(0.007000,-0.007000)"/>
    <path d="M600 1097Q764 1097 879.0 1027.0Q994 957 1055.0 830.5Q1116 704 1116 534Q1116 357 1054.5 229.5Q993 102 878.0 34.0Q763 -34 600 -34Q438 -34 322.5 33.0Q207 100 145.5 227.0Q84 354 84 532Q84 701 145.5 828.0Q207 955 322.5 1026.0Q438 1097 600 1097ZM600 864Q503 864 456.5 784.5Q410 705 410 532Q410 356 456.5 277.0Q503 198 600 198Q697 198 743.5 277.0Q790 356 790 534Q790 706 743.5 785.0Q697 864 600 864Z" transform="translate(73.6,628) scale(0.007000,-0.007000)"/>
    <path d="M140 0V1062H416L438 939Q509 1019 588.0 1058.0Q667 1097 768 1097Q904 1097 982.0 1014.0Q1060 931 1060 780V0H744V689Q744 754 735.0 792.5Q726 831 703.5 847.5Q681 864 642 864Q609 864 577.5 849.5Q546 835 516.0 808.0Q486 781 456 743V0Z" transform="translate(82.0,628) scale(0.007000,-0.007000)"/>
    <path d="M1083 1232 1157 1000Q1101 978 1026.0 968.0Q951 958 851 958Q951 915 1003.5 851.5Q1056 788 1056 685Q1056 582 1001.0 501.5Q946 421 845.0 375.0Q744 329 606 329Q572 329 542.0 332.0Q512 335 483 341Q466 332 457.0 315.0Q448 298 448 280Q448 255 468.5 235.0Q489 215 565 215H739Q863 215 953.5 175.0Q1044 135 1094.0 66.0Q1144 -3 1144 -92Q1144 -255 1001.0 -349.0Q858 -443 576 -443Q372 -443 260.5 -401.5Q149 -360 105.5 -283.5Q62 -207 62 -102H342Q342 -148 360.5 -177.5Q379 -207 431.5 -221.0Q484 -235 584 -235Q685 -235 738.0 -219.0Q791 -203 810.5 -175.5Q830 -148 830 -114Q830 -67 793.0 -38.0Q756 -9 676 -9H507Q335 -9 257.0 54.5Q179 118 179 203Q179 262 210.5 315.0Q242 368 299 404Q197 458 153.0 531.5Q109 605 109 708Q109 828 170.0 914.5Q231 1001 338.5 1048.0Q446 1095 584 1095Q703 1093 791.0 1111.5Q879 1130 949.0 1162.5Q1019 1195 1083 1232ZM592 890Q517 890 473.0 842.5Q429 795 429 712Q429 624 474.0 577.0Q519 530 592 530Q671 530 712.5 577.0Q754 624 754 716Q754 805 713.0 847.5Q672 890 592 890Z" transform="translate(130.0,628) scale(0.007000,-0.007000)"/>
    <path d="M150 0V212H290V852H150V1062H531L589 823Q646 960 734.5 1027.0Q823 1094 951 1094Q1005 1094 1047.0 1085.5Q1089 1077 1126 1062L1030 801Q1001 809 972.0 813.0Q943 817 908 817Q804 817 725.5 732.0Q647 647 606 516V212H816V0ZM869 618V928L916 1062H1126L1067 618Z" transform="translate(138.4,628) scale(0.007000,-0.007000)"/>
    <path d="M1034 306Q1034 246 1050.5 219.0Q1067 192 1104 178L1039 -30Q945 -21 880.5 11.5Q816 44 779 110Q718 37 623.0 1.5Q528 -34 429 -34Q265 -34 167.5 59.5Q70 153 70 300Q70 473 205.5 567.0Q341 661 587 661H730V701Q730 784 676.5 824.0Q623 864 520 864Q469 864 389.0 849.5Q309 835 229 808L156 1018Q259 1057 370.5 1077.0Q482 1097 570 1097Q807 1097 920.5 1000.5Q1034 904 1034 722ZM538 192Q589 192 645.0 222.5Q701 253 730 309V481H652Q520 481 458.0 440.5Q396 400 396 322Q396 261 433.5 226.5Q471 192 538 192Z" transform="translate(146.8,628) scale(0.007000,-0.007000)"/>
    <path d="M140 0V1062H416L438 939Q509 1019 588.0 1058.0Q667 1097 768 1097Q904 1097 982.0 1014.0Q1060 931 1060 780V0H744V689Q744 754 735.0 792.5Q726 831 703.5 847.5Q681 864 642 864Q609 864 577.5 849.5Q546 835 516.0 808.0Q486 781 456 743V0Z" transform="translate(155.2,628) scale(0.007000,-0.007000)"/>
    <path d="M789 1062V216H1059V0H172V216H473V846H182V1062ZM598 1618Q680 1618 732.0 1567.0Q784 1516 784 1440Q784 1364 732.0 1312.5Q680 1261 598 1261Q515 1261 462.5 1312.5Q410 1364 410 1440Q410 1516 462.5 1567.0Q515 1618 598 1618Z" transform="translate(163.6,628) scale(0.007000,-0.007000)"/>
    <path d="M1096 62Q1034 22 946.0 -6.0Q858 -34 748 -34Q540 -34 439.0 72.5Q338 179 338 362V844H115V1062H338V1292L654 1330V1062H996L965 844H654V362Q654 283 690.0 249.0Q726 215 805 215Q861 215 907.5 228.5Q954 242 991 263Z" transform="translate(172.0,628) scale(0.007000,-0.007000)"/>
    <path d="M414 439Q425 352 459.5 298.5Q494 245 548.0 220.5Q602 196 669 196Q742 196 810.0 220.0Q878 244 941 284L1068 112Q993 48 886.5 7.0Q780 -34 644 -34Q462 -34 339.0 38.5Q216 111 154.0 238.0Q92 365 92 530Q92 687 152.0 815.5Q212 944 327.5 1020.5Q443 1097 610 1097Q762 1097 873.5 1032.0Q985 967 1046.5 845.0Q1108 723 1108 552Q1108 525 1106.5 494.0Q1105 463 1102 439ZM610 885Q525 885 473.0 824.0Q421 763 410 629H800Q799 745 755.0 815.0Q711 885 610 885Z" transform="translate(180.4,628) scale(0.007000,-0.007000)"/>
    <path d="M703 215Q768 215 825.5 240.5Q883 266 940 306L1081 106Q1011 46 910.5 6.0Q810 -34 686 -34Q515 -34 392.0 36.5Q269 107 203.0 232.5Q137 358 137 524Q137 690 204.5 819.5Q272 949 396.5 1023.0Q521 1097 692 1097Q813 1097 907.5 1063.5Q1002 1030 1081 964L944 774Q890 812 830.0 833.0Q770 854 705 854Q598 854 532.5 778.5Q467 703 467 524Q467 407 498.0 339.5Q529 272 582.5 243.5Q636 215 703 215Z" transform="translate(230.0,628) scale(0.007000,-0.007000)"/>
    <path d="M456 1515V957Q523 1028 601.5 1062.5Q680 1097 768 1097Q910 1097 985.0 1014.0Q1060 931 1060 780V0H744V692Q744 788 722.5 826.0Q701 864 642 864Q609 864 577.5 848.5Q546 833 516.0 804.0Q486 775 456 735V0H140V1484Z" transform="translate(238.4,628) scale(0.007000,-0.007000)"/>
    <path d="M600 1097Q764 1097 879.0 1027.0Q994 957 1055.0 830.5Q1116 704 1116 534Q1116 357 1054.5 229.5Q993 102 878.0 34.0Q763 -34 600 -34Q438 -34 322.5 33.0Q207 100 145.5 227.0Q84 354 84 532Q84 701 145.5 828.0Q207 955 322.5 1026.0Q438 1097 600 1097ZM600 864Q503 864 456.5 784.5Q410 705 410 532Q410 356 456.5 277.0Q503 198 600 198Q697 198 743.5 277.0Q790 356 790 534Q790 706 743.5 785.0Q697 864 600 864Z" transform="translate(246.8,628) scale(0.007000,-0.007000)"/>
    <path d="M600 1097Q764 1097 879.0 1027.0Q994 957 1055.0 830.5Q1116 704 1116 534Q1116 357 1054.5 229.5Q993 102 878.0 34.0Q763 -34 600 -34Q438 -34 322.5 33.0Q207 100 145.5 227.0Q84 354 84 532Q84 701 145.5 828.0Q207 955 322.5 1026.0Q438 1097 600 1097ZM600 864Q503 864 456.5 784.5Q410 705 410 532Q410 356 456.5 277.0Q503 198 600 198Q697 198 743.5 277.0Q790 356 790 534Q790 706 743.5 785.0Q697 864 600 864Z" transform="translate(255.2,628) scale(0.007000,-0.007000)"/>
    <path d="M566 192Q645 192 693.5 217.0Q742 242 742 292Q742 326 723.0 349.0Q704 372 650.0 393.0Q596 414 490 443Q393 469 318.5 509.0Q244 549 202.5 612.0Q161 675 161 769Q161 864 214.0 938.0Q267 1012 370.0 1054.5Q473 1097 622 1097Q764 1097 869.5 1060.5Q975 1024 1052 968L926 782Q860 823 784.0 847.5Q708 872 631 872Q554 872 516.5 851.5Q479 831 479 790Q479 763 498.5 743.5Q518 724 572.0 703.5Q626 683 730 653Q833 624 909.5 586.0Q986 548 1028.0 484.5Q1070 421 1070 317Q1070 201 1001.0 122.5Q932 44 818.0 5.0Q704 -34 568 -34Q414 -34 296.0 10.0Q178 54 95 126L254 304Q316 256 394.5 224.0Q473 192 566 192Z" transform="translate(263.6,628) scale(0.007000,-0.007000)"/>
    <path d="M414 439Q425 352 459.5 298.5Q494 245 548.0 220.5Q602 196 669 196Q742 196 810.0 220.0Q878 244 941 284L1068 112Q993 48 886.5 7.0Q780 -34 644 -34Q462 -34 339.0 38.5Q216 111 154.0 238.0Q92 365 92 530Q92 687 152.0 815.5Q212 944 327.5 1020.5Q443 1097 610 1097Q762 1097 873.5 1032.0Q985 967 1046.5 845.0Q1108 723 1108 552Q1108 525 1106.5 494.0Q1105 463 1102 439ZM610 885Q525 885 473.0 824.0Q421 763 410 629H800Q799 745 755.0 815.0Q711 885 610 885Z" transform="translate(272.0,628) scale(0.007000,-0.007000)"/>
    <path d="M456 953Q506 1019 576.5 1058.0Q647 1097 728 1097Q865 1097 951.5 1028.0Q1038 959 1079.0 833.0Q1120 707 1120 534Q1120 370 1071.5 241.5Q1023 113 928.0 39.5Q833 -34 695 -34Q528 -34 432 96L420 0H140V1484L456 1517ZM612 196Q696 196 745.0 273.5Q794 351 794 530Q794 662 773.5 734.5Q753 807 715.5 835.5Q678 864 628 864Q575 864 533.0 831.0Q491 798 456 741V293Q486 246 523.0 221.0Q560 196 612 196Z" transform="translate(320.0,628) scale(0.007000,-0.007000)"/>
    <path d="M789 1062V216H1059V0H172V216H473V846H182V1062ZM598 1618Q680 1618 732.0 1567.0Q784 1516 784 1440Q784 1364 732.0 1312.5Q680 1261 598 1261Q515 1261 462.5 1312.5Q410 1364 410 1440Q410 1516 462.5 1567.0Q515 1618 598 1618Z" transform="translate(328.4,628) scale(0.007000,-0.007000)"/>
    <path d="M744 1517 1060 1484V0H780L764 117Q720 55 647.0 10.5Q574 -34 470 -34Q338 -34 251.5 37.0Q165 108 122.5 235.5Q80 363 80 534Q80 698 131.0 825.0Q182 952 277.0 1024.5Q372 1097 503 1097Q574 1097 635.0 1072.0Q696 1047 744 999ZM588 866Q506 866 456.0 788.5Q406 711 406 532Q406 401 427.0 328.5Q448 256 485.0 227.0Q522 198 570 198Q623 198 666.5 231.0Q710 264 744 321V779Q711 820 674.0 843.0Q637 866 588 866Z" transform="translate(336.8,628) scale(0.007000,-0.007000)"/>
    <path d="M789 1062V216H1059V0H172V216H473V846H182V1062ZM598 1618Q680 1618 732.0 1567.0Q784 1516 784 1440Q784 1364 732.0 1312.5Q680 1261 598 1261Q515 1261 462.5 1312.5Q410 1364 410 1440Q410 1516 462.5 1567.0Q515 1618 598 1618Z" transform="translate(380.0,628) scale(0.007000,-0.007000)"/>
    <path d="M925 1097Q1001 1097 1050.0 1065.0Q1099 1033 1123.0 964.5Q1147 896 1147 786V0H876V750Q876 806 865.5 829.0Q855 852 823 852Q798 852 771.5 837.5Q745 823 713 783V0H491V750Q491 806 480.5 829.0Q470 852 438 852Q413 852 386.5 837.5Q360 823 328 783V0H53V1062H285L306 959Q356 1027 407.0 1062.0Q458 1097 528 1097Q588 1097 630.5 1066.5Q673 1036 691 971Q739 1027 797.0 1062.0Q855 1097 925 1097Z" transform="translate(388.4,628) scale(0.007000,-0.007000)"/>
    <path d="M728 1097Q867 1097 952.0 1028.0Q1037 959 1076.5 833.0Q1116 707 1116 534Q1116 370 1068.0 241.5Q1020 113 929.0 39.5Q838 -34 708 -34Q553 -34 456 77V-410L140 -443V1062H420L434 943Q499 1026 576.0 1061.5Q653 1097 728 1097ZM630 864Q575 864 533.0 831.0Q491 798 456 741V293Q489 244 525.5 221.0Q562 198 612 198Q696 198 743.0 274.5Q790 351 790 530Q790 662 771.0 734.5Q752 807 716.0 835.5Q680 864 630 864Z" transform="translate(396.8,628) scale(0.007000,-0.007000)"/>
    <path d="M456 1062V335Q456 258 484.5 229.0Q513 200 564 200Q613 200 662.0 231.0Q711 262 744 315V1062H1060V0H784L770 124Q716 46 628.0 6.0Q540 -34 444 -34Q290 -34 215.0 55.5Q140 145 140 296V1062Z" transform="translate(405.2,628) scale(0.007000,-0.007000)"/>
    <path d="M694 1484V334Q694 270 730.5 242.5Q767 215 831 215Q872 215 910.0 224.5Q948 234 981 247L1057 36Q1003 8 927.0 -13.0Q851 -34 750 -34Q558 -34 468.0 76.5Q378 187 378 373V1268H65V1484Z" transform="translate(413.6,628) scale(0.007000,-0.007000)"/>
    <path d="M566 192Q645 192 693.5 217.0Q742 242 742 292Q742 326 723.0 349.0Q704 372 650.0 393.0Q596 414 490 443Q393 469 318.5 509.0Q244 549 202.5 612.0Q161 675 161 769Q161 864 214.0 938.0Q267 1012 370.0 1054.5Q473 1097 622 1097Q764 1097 869.5 1060.5Q975 1024 1052 968L926 782Q860 823 784.0 847.5Q708 872 631 872Q554 872 516.5 851.5Q479 831 479 790Q479 763 498.5 743.5Q518 724 572.0 703.5Q626 683 730 653Q833 624 909.5 586.0Q986 548 1028.0 484.5Q1070 421 1070 317Q1070 201 1001.0 122.5Q932 44 818.0 5.0Q704 -34 568 -34Q414 -34 296.0 10.0Q178 54 95 126L254 304Q316 256 394.5 224.0Q473 192 566 192Z" transform="translate(422.0,628) scale(0.007000,-0.007000)"/>
    <path d="M414 439Q425 352 459.5 298.5Q494 245 548.0 220.5Q602 196 669 196Q742 196 810.0 220.0Q878 244 941 284L1068 112Q993 48 886.5 7.0Q780 -34 644 -34Q462 -34 339.0 38.5Q216 111 154.0 238.0Q92 365 92 530Q92 687 152.0 815.5Q212 944 327.5 1020.5Q443 1097 610 1097Q762 1097 873.5 1032.0Q985 967 1046.5 845.0Q1108 723 1108 552Q1108 525 1106.5 494.0Q1105 463 1102 439ZM610 885Q525 885 473.0 824.0Q421 763 410 629H800Q799 745 755.0 815.0Q711 885 610 885Z" transform="translate(430.4,628) scale(0.007000,-0.007000)"/>
    <path d="M1142 1062 788 0H416L58 1062H399L606 242L822 1062Z" transform="translate(480.0,628) scale(0.007000,-0.007000)"/>
    <path d="M414 439Q425 352 459.5 298.5Q494 245 548.0 220.5Q602 196 669 196Q742 196 810.0 220.0Q878 244 941 284L1068 112Q993 48 886.5 7.0Q780 -34 644 -34Q462 -34 339.0 38.5Q216 111 154.0 238.0Q92 365 92 530Q92 687 152.0 815.5Q212 944 327.5 1020.5Q443 1097 610 1097Q762 1097 873.5 1032.0Q985 967 1046.5 845.0Q1108 723 1108 552Q1108 525 1106.5 494.0Q1105 463 1102 439ZM610 885Q525 885 473.0 824.0Q421 763 410 629H800Q799 745 755.0 815.0Q711 885 610 885Z" transform="translate(488.4,628) scale(0.007000,-0.007000)"/>
    <path d="M140 0V1062H416L438 939Q509 1019 588.0 1058.0Q667 1097 768 1097Q904 1097 982.0 1014.0Q1060 931 1060 780V0H744V689Q744 754 735.0 792.5Q726 831 703.5 847.5Q681 864 642 864Q609 864 577.5 849.5Q546 835 516.0 808.0Q486 781 456 743V0Z" transform="translate(496.8,628) scale(0.007000,-0.007000)"/>
    <path d="M1096 62Q1034 22 946.0 -6.0Q858 -34 748 -34Q540 -34 439.0 72.5Q338 179 338 362V844H115V1062H338V1292L654 1330V1062H996L965 844H654V362Q654 283 690.0 249.0Q726 215 805 215Q861 215 907.5 228.5Q954 242 991 263Z" transform="translate(505.2,628) scale(0.007000,-0.007000)"/>
    <path d="M456 1062V335Q456 258 484.5 229.0Q513 200 564 200Q613 200 662.0 231.0Q711 262 744 315V1062H1060V0H784L770 124Q716 46 628.0 6.0Q540 -34 444 -34Q290 -34 215.0 55.5Q140 145 140 296V1062Z" transform="translate(513.6,628) scale(0.007000,-0.007000)"/>
    <path d="M150 0V212H290V852H150V1062H531L589 823Q646 960 734.5 1027.0Q823 1094 951 1094Q1005 1094 1047.0 1085.5Q1089 1077 1126 1062L1030 801Q1001 809 972.0 813.0Q943 817 908 817Q804 817 725.5 732.0Q647 647 606 516V212H816V0ZM869 618V928L916 1062H1126L1067 618Z" transform="translate(522.0,628) scale(0.007000,-0.007000)"/>
    <path d="M414 439Q425 352 459.5 298.5Q494 245 548.0 220.5Q602 196 669 196Q742 196 810.0 220.0Q878 244 941 284L1068 112Q993 48 886.5 7.0Q780 -34 644 -34Q462 -34 339.0 38.5Q216 111 154.0 238.0Q92 365 92 530Q92 687 152.0 815.5Q212 944 327.5 1020.5Q443 1097 610 1097Q762 1097 873.5 1032.0Q985 967 1046.5 845.0Q1108 723 1108 552Q1108 525 1106.5 494.0Q1105 463 1102 439ZM610 885Q525 885 473.0 824.0Q421 763 410 629H800Q799 745 755.0 815.0Q711 885 610 885Z" transform="translate(530.4,628) scale(0.007000,-0.007000)"/>
    <path d="M925 1097Q1001 1097 1050.0 1065.0Q1099 1033 1123.0 964.5Q1147 896 1147 786V0H876V750Q876 806 865.5 829.0Q855 852 823 852Q798 852 771.5 837.5Q745 823 713 783V0H491V750Q491 806 480.5 829.0Q470 852 438 852Q413 852 386.5 837.5Q360 823 328 783V0H53V1062H285L306 959Q356 1027 407.0 1062.0Q458 1097 528 1097Q588 1097 630.5 1066.5Q673 1036 691 971Q739 1027 797.0 1062.0Q855 1097 925 1097Z" transform="translate(580.0,628) scale(0.007000,-0.007000)"/>
    <path d="M1034 306Q1034 246 1050.5 219.0Q1067 192 1104 178L1039 -30Q945 -21 880.5 11.5Q816 44 779 110Q718 37 623.0 1.5Q528 -34 429 -34Q265 -34 167.5 59.5Q70 153 70 300Q70 473 205.5 567.0Q341 661 587 661H730V701Q730 784 676.5 824.0Q623 864 520 864Q469 864 389.0 849.5Q309 835 229 808L156 1018Q259 1057 370.5 1077.0Q482 1097 570 1097Q807 1097 920.5 1000.5Q1034 904 1034 722ZM538 192Q589 192 645.0 222.5Q701 253 730 309V481H652Q520 481 458.0 440.5Q396 400 396 322Q396 261 433.5 226.5Q471 192 538 192Z" transform="translate(588.4,628) scale(0.007000,-0.007000)"/>
    <path d="M150 0V212H290V852H150V1062H531L589 823Q646 960 734.5 1027.0Q823 1094 951 1094Q1005 1094 1047.0 1085.5Q1089 1077 1126 1062L1030 801Q1001 809 972.0 813.0Q943 817 908 817Q804 817 725.5 732.0Q647 647 606 516V212H816V0ZM869 618V928L916 1062H1126L1067 618Z" transform="translate(596.8,628) scale(0.007000,-0.007000)"/>
    <path d="M456 953Q506 1019 576.5 1058.0Q647 1097 728 1097Q865 1097 951.5 1028.0Q1038 959 1079.0 833.0Q1120 707 1120 534Q1120 370 1071.5 241.5Q1023 113 928.0 39.5Q833 -34 695 -34Q528 -34 432 96L420 0H140V1484L456 1517ZM612 196Q696 196 745.0 273.5Q794 351 794 530Q794 662 773.5 734.5Q753 807 715.5 835.5Q678 864 628 864Q575 864 533.0 831.0Q491 798 456 741V293Q486 246 523.0 221.0Q560 196 612 196Z" transform="translate(605.2,628) scale(0.007000,-0.007000)"/>
    <path d="M694 1484V334Q694 270 730.5 242.5Q767 215 831 215Q872 215 910.0 224.5Q948 234 981 247L1057 36Q1003 8 927.0 -13.0Q851 -34 750 -34Q558 -34 468.0 76.5Q378 187 378 373V1268H65V1484Z" transform="translate(613.6,628) scale(0.007000,-0.007000)"/>
    <path d="M414 439Q425 352 459.5 298.5Q494 245 548.0 220.5Q602 196 669 196Q742 196 810.0 220.0Q878 244 941 284L1068 112Q993 48 886.5 7.0Q780 -34 644 -34Q462 -34 339.0 38.5Q216 111 154.0 238.0Q92 365 92 530Q92 687 152.0 815.5Q212 944 327.5 1020.5Q443 1097 610 1097Q762 1097 873.5 1032.0Q985 967 1046.5 845.0Q1108 723 1108 552Q1108 525 1106.5 494.0Q1105 463 1102 439ZM610 885Q525 885 473.0 824.0Q421 763 410 629H800Q799 745 755.0 815.0Q711 885 610 885Z" transform="translate(622.0,628) scale(0.007000,-0.007000)"/>
    <path d="M456 953Q506 1019 576.5 1058.0Q647 1097 728 1097Q865 1097 951.5 1028.0Q1038 959 1079.0 833.0Q1120 707 1120 534Q1120 370 1071.5 241.5Q1023 113 928.0 39.5Q833 -34 695 -34Q528 -34 432 96L420 0H140V1484L456 1517ZM612 196Q696 196 745.0 273.5Q794 351 794 530Q794 662 773.5 734.5Q753 807 715.5 835.5Q678 864 628 864Q575 864 533.0 831.0Q491 798 456 741V293Q486 246 523.0 221.0Q560 196 612 196Z" transform="translate(670.0,628) scale(0.007000,-0.007000)"/>
    <path d="M150 0V212H290V852H150V1062H531L589 823Q646 960 734.5 1027.0Q823 1094 951 1094Q1005 1094 1047.0 1085.5Q1089 1077 1126 1062L1030 801Q1001 809 972.0 813.0Q943 817 908 817Q804 817 725.5 732.0Q647 647 606 516V212H816V0ZM869 618V928L916 1062H1126L1067 618Z" transform="translate(678.4,628) scale(0.007000,-0.007000)"/>
    <path d="M1034 306Q1034 246 1050.5 219.0Q1067 192 1104 178L1039 -30Q945 -21 880.5 11.5Q816 44 779 110Q718 37 623.0 1.5Q528 -34 429 -34Q265 -34 167.5 59.5Q70 153 70 300Q70 473 205.5 567.0Q341 661 587 661H730V701Q730 784 676.5 824.0Q623 864 520 864Q469 864 389.0 849.5Q309 835 229 808L156 1018Q259 1057 370.5 1077.0Q482 1097 570 1097Q807 1097 920.5 1000.5Q1034 904 1034 722ZM538 192Q589 192 645.0 222.5Q701 253 730 309V481H652Q520 481 458.0 440.5Q396 400 396 322Q396 261 433.5 226.5Q471 192 538 192Z" transform="translate(686.8,628) scale(0.007000,-0.007000)"/>
    <path d="M140 0V1062H416L438 939Q509 1019 588.0 1058.0Q667 1097 768 1097Q904 1097 982.0 1014.0Q1060 931 1060 780V0H744V689Q744 754 735.0 792.5Q726 831 703.5 847.5Q681 864 642 864Q609 864 577.5 849.5Q546 835 516.0 808.0Q486 781 456 743V0Z" transform="translate(695.2,628) scale(0.007000,-0.007000)"/>
    <path d="M703 215Q768 215 825.5 240.5Q883 266 940 306L1081 106Q1011 46 910.5 6.0Q810 -34 686 -34Q515 -34 392.0 36.5Q269 107 203.0 232.5Q137 358 137 524Q137 690 204.5 819.5Q272 949 396.5 1023.0Q521 1097 692 1097Q813 1097 907.5 1063.5Q1002 1030 1081 964L944 774Q890 812 830.0 833.0Q770 854 705 854Q598 854 532.5 778.5Q467 703 467 524Q467 407 498.0 339.5Q529 272 582.5 243.5Q636 215 703 215Z" transform="translate(703.6,628) scale(0.007000,-0.007000)"/>
    <path d="M456 1515V957Q523 1028 601.5 1062.5Q680 1097 768 1097Q910 1097 985.0 1014.0Q1060 931 1060 780V0H744V692Q744 788 722.5 826.0Q701 864 642 864Q609 864 577.5 848.5Q546 833 516.0 804.0Q486 775 456 735V0H140V1484Z" transform="translate(712.0,628) scale(0.007000,-0.007000)"/>
    <path d="M566 192Q645 192 693.5 217.0Q742 242 742 292Q742 326 723.0 349.0Q704 372 650.0 393.0Q596 414 490 443Q393 469 318.5 509.0Q244 549 202.5 612.0Q161 675 161 769Q161 864 214.0 938.0Q267 1012 370.0 1054.5Q473 1097 622 1097Q764 1097 869.5 1060.5Q975 1024 1052 968L926 782Q860 823 784.0 847.5Q708 872 631 872Q554 872 516.5 851.5Q479 831 479 790Q479 763 498.5 743.5Q518 724 572.0 703.5Q626 683 730 653Q833 624 909.5 586.0Q986 548 1028.0 484.5Q1070 421 1070 317Q1070 201 1001.0 122.5Q932 44 818.0 5.0Q704 -34 568 -34Q414 -34 296.0 10.0Q178 54 95 126L254 304Q316 256 394.5 224.0Q473 192 566 192Z" transform="translate(760.0,628) scale(0.007000,-0.007000)"/>
    <path d="M456 1062V335Q456 258 484.5 229.0Q513 200 564 200Q613 200 662.0 231.0Q711 262 744 315V1062H1060V0H784L770 124Q716 46 628.0 6.0Q540 -34 444 -34Q290 -34 215.0 55.5Q140 145 140 296V1062Z" transform="translate(768.4,628) scale(0.007000,-0.007000)"/>
    <path d="M925 1097Q1001 1097 1050.0 1065.0Q1099 1033 1123.0 964.5Q1147 896 1147 786V0H876V750Q876 806 865.5 829.0Q855 852 823 852Q798 852 771.5 837.5Q745 823 713 783V0H491V750Q491 806 480.5 829.0Q470 852 438 852Q413 852 386.5 837.5Q360 823 328 783V0H53V1062H285L306 959Q356 1027 407.0 1062.0Q458 1097 528 1097Q588 1097 630.5 1066.5Q673 1036 691 971Q739 1027 797.0 1062.0Q855 1097 925 1097Z" transform="translate(776.8,628) scale(0.007000,-0.007000)"/>
    <path d="M925 1097Q1001 1097 1050.0 1065.0Q1099 1033 1123.0 964.5Q1147 896 1147 786V0H876V750Q876 806 865.5 829.0Q855 852 823 852Q798 852 771.5 837.5Q745 823 713 783V0H491V750Q491 806 480.5 829.0Q470 852 438 852Q413 852 386.5 837.5Q360 823 328 783V0H53V1062H285L306 959Q356 1027 407.0 1062.0Q458 1097 528 1097Q588 1097 630.5 1066.5Q673 1036 691 971Q739 1027 797.0 1062.0Q855 1097 925 1097Z" transform="translate(785.2,628) scale(0.007000,-0.007000)"/>
    <path d="M789 1062V216H1059V0H172V216H473V846H182V1062ZM598 1618Q680 1618 732.0 1567.0Q784 1516 784 1440Q784 1364 732.0 1312.5Q680 1261 598 1261Q515 1261 462.5 1312.5Q410 1364 410 1440Q410 1516 462.5 1567.0Q515 1618 598 1618Z" transform="translate(793.6,628) scale(0.007000,-0.007000)"/>
    <path d="M1096 62Q1034 22 946.0 -6.0Q858 -34 748 -34Q540 -34 439.0 72.5Q338 179 338 362V844H115V1062H338V1292L654 1330V1062H996L965 844H654V362Q654 283 690.0 249.0Q726 215 805 215Q861 215 907.5 228.5Q954 242 991 263Z" transform="translate(802.0,628) scale(0.007000,-0.007000)"/>
    <path d="M703 215Q768 215 825.5 240.5Q883 266 940 306L1081 106Q1011 46 910.5 6.0Q810 -34 686 -34Q515 -34 392.0 36.5Q269 107 203.0 232.5Q137 358 137 524Q137 690 204.5 819.5Q272 949 396.5 1023.0Q521 1097 692 1097Q813 1097 907.5 1063.5Q1002 1030 1081 964L944 774Q890 812 830.0 833.0Q770 854 705 854Q598 854 532.5 778.5Q467 703 467 524Q467 407 498.0 339.5Q529 272 582.5 243.5Q636 215 703 215Z" transform="translate(850.0,628) scale(0.007000,-0.007000)"/>
    <path d="M694 1484V334Q694 270 730.5 242.5Q767 215 831 215Q872 215 910.0 224.5Q948 234 981 247L1057 36Q1003 8 927.0 -13.0Q851 -34 750 -34Q558 -34 468.0 76.5Q378 187 378 373V1268H65V1484Z" transform="translate(858.4,628) scale(0.007000,-0.007000)"/>
    <path d="M1034 306Q1034 246 1050.5 219.0Q1067 192 1104 178L1039 -30Q945 -21 880.5 11.5Q816 44 779 110Q718 37 623.0 1.5Q528 -34 429 -34Q265 -34 167.5 59.5Q70 153 70 300Q70 473 205.5 567.0Q341 661 587 661H730V701Q730 784 676.5 824.0Q623 864 520 864Q469 864 389.0 849.5Q309 835 229 808L156 1018Q259 1057 370.5 1077.0Q482 1097 570 1097Q807 1097 920.5 1000.5Q1034 904 1034 722ZM538 192Q589 192 645.0 222.5Q701 253 730 309V481H652Q520 481 458.0 440.5Q396 400 396 322Q396 261 433.5 226.5Q471 192 538 192Z" transform="translate(866.8,628) scale(0.007000,-0.007000)"/>
    <path d="M150 0V212H290V852H150V1062H531L589 823Q646 960 734.5 1027.0Q823 1094 951 1094Q1005 1094 1047.0 1085.5Q1089 1077 1126 1062L1030 801Q1001 809 972.0 813.0Q943 817 908 817Q804 817 725.5 732.0Q647 647 606 516V212H816V0ZM869 618V928L916 1062H1126L1067 618Z" transform="translate(875.2,628) scale(0.007000,-0.007000)"/>
    <path d="M789 1062V216H1059V0H172V216H473V846H182V1062ZM598 1618Q680 1618 732.0 1567.0Q784 1516 784 1440Q784 1364 732.0 1312.5Q680 1261 598 1261Q515 1261 462.5 1312.5Q410 1364 410 1440Q410 1516 462.5 1567.0Q515 1618 598 1618Z" transform="translate(883.6,628) scale(0.007000,-0.007000)"/>
    <path d="M816 1517Q932 1517 1021.0 1498.5Q1110 1480 1180 1450L1093 1244Q1038 1265 980.0 1274.5Q922 1284 865 1284Q771 1284 730.5 1250.0Q690 1216 690 1137V995H1036L1001 776H690V0H376V776H153V995H376V1149Q376 1254 426.0 1337.0Q476 1420 574.0 1468.5Q672 1517 816 1517Z" transform="translate(892.0,628) scale(0.007000,-0.007000)"/>
    <path d="M1144 1062 790 0Q743 -141 665.5 -236.5Q588 -332 472.5 -384.0Q357 -436 195 -445L159 -222Q264 -209 328.5 -183.0Q393 -157 432.5 -112.5Q472 -68 501 0H393L56 1062H390L596 202L820 1062Z" transform="translate(900.4,628) scale(0.007000,-0.007000)"/>
    <path d="M456 953Q506 1019 576.5 1058.0Q647 1097 728 1097Q865 1097 951.5 1028.0Q1038 959 1079.0 833.0Q1120 707 1120 534Q1120 370 1071.5 241.5Q1023 113 928.0 39.5Q833 -34 695 -34Q528 -34 432 96L420 0H140V1484L456 1517ZM612 196Q696 196 745.0 273.5Q794 351 794 530Q794 662 773.5 734.5Q753 807 715.5 835.5Q678 864 628 864Q575 864 533.0 831.0Q491 798 456 741V293Q486 246 523.0 221.0Q560 196 612 196Z" transform="translate(940.0,628) scale(0.007000,-0.007000)"/>
    <path d="M150 0V212H290V852H150V1062H531L589 823Q646 960 734.5 1027.0Q823 1094 951 1094Q1005 1094 1047.0 1085.5Q1089 1077 1126 1062L1030 801Q1001 809 972.0 813.0Q943 817 908 817Q804 817 725.5 732.0Q647 647 606 516V212H816V0ZM869 618V928L916 1062H1126L1067 618Z" transform="translate(948.4,628) scale(0.007000,-0.007000)"/>
    <path d="M789 1062V216H1059V0H172V216H473V846H182V1062ZM598 1618Q680 1618 732.0 1567.0Q784 1516 784 1440Q784 1364 732.0 1312.5Q680 1261 598 1261Q515 1261 462.5 1312.5Q410 1364 410 1440Q410 1516 462.5 1567.0Q515 1618 598 1618Z" transform="translate(956.8,628) scale(0.007000,-0.007000)"/>
    <path d="M744 1517 1060 1484V0H780L764 117Q720 55 647.0 10.5Q574 -34 470 -34Q338 -34 251.5 37.0Q165 108 122.5 235.5Q80 363 80 534Q80 698 131.0 825.0Q182 952 277.0 1024.5Q372 1097 503 1097Q574 1097 635.0 1072.0Q696 1047 744 999ZM588 866Q506 866 456.0 788.5Q406 711 406 532Q406 401 427.0 328.5Q448 256 485.0 227.0Q522 198 570 198Q623 198 666.5 231.0Q710 264 744 321V779Q711 820 674.0 843.0Q637 866 588 866Z" transform="translate(965.2,628) scale(0.007000,-0.007000)"/>
    <path d="M1083 1232 1157 1000Q1101 978 1026.0 968.0Q951 958 851 958Q951 915 1003.5 851.5Q1056 788 1056 685Q1056 582 1001.0 501.5Q946 421 845.0 375.0Q744 329 606 329Q572 329 542.0 332.0Q512 335 483 341Q466 332 457.0 315.0Q448 298 448 280Q448 255 468.5 235.0Q489 215 565 215H739Q863 215 953.5 175.0Q1044 135 1094.0 66.0Q1144 -3 1144 -92Q1144 -255 1001.0 -349.0Q858 -443 576 -443Q372 -443 260.5 -401.5Q149 -360 105.5 -283.5Q62 -207 62 -102H342Q342 -148 360.5 -177.5Q379 -207 431.5 -221.0Q484 -235 584 -235Q685 -235 738.0 -219.0Q791 -203 810.5 -175.5Q830 -148 830 -114Q830 -67 793.0 -38.0Q756 -9 676 -9H507Q335 -9 257.0 54.5Q179 118 179 203Q179 262 210.5 315.0Q242 368 299 404Q197 458 153.0 531.5Q109 605 109 708Q109 828 170.0 914.5Q231 1001 338.5 1048.0Q446 1095 584 1095Q703 1093 791.0 1111.5Q879 1130 949.0 1162.5Q1019 1195 1083 1232ZM592 890Q517 890 473.0 842.5Q429 795 429 712Q429 624 474.0 577.0Q519 530 592 530Q671 530 712.5 577.0Q754 624 754 716Q754 805 713.0 847.5Q672 890 592 890Z" transform="translate(973.6,628) scale(0.007000,-0.007000)"/>
    <path d="M414 439Q425 352 459.5 298.5Q494 245 548.0 220.5Q602 196 669 196Q742 196 810.0 220.0Q878 244 941 284L1068 112Q993 48 886.5 7.0Q780 -34 644 -34Q462 -34 339.0 38.5Q216 111 154.0 238.0Q92 365 92 530Q92 687 152.0 815.5Q212 944 327.5 1020.5Q443 1097 610 1097Q762 1097 873.5 1032.0Q985 967 1046.5 845.0Q1108 723 1108 552Q1108 525 1106.5 494.0Q1105 463 1102 439ZM610 885Q525 885 473.0 824.0Q421 763 410 629H800Q799 745 755.0 815.0Q711 885 610 885Z" transform="translate(982.0,628) scale(0.007000,-0.007000)"/>
    <path d="M816 1517Q932 1517 1021.0 1498.5Q1110 1480 1180 1450L1093 1244Q1038 1265 980.0 1274.5Q922 1284 865 1284Q771 1284 730.5 1250.0Q690 1216 690 1137V995H1036L1001 776H690V0H376V776H153V995H376V1149Q376 1254 426.0 1337.0Q476 1420 574.0 1468.5Q672 1517 816 1517Z" transform="translate(1020.0,628) scale(0.007000,-0.007000)"/>
    <path d="M1034 306Q1034 246 1050.5 219.0Q1067 192 1104 178L1039 -30Q945 -21 880.5 11.5Q816 44 779 110Q718 37 623.0 1.5Q528 -34 429 -34Q265 -34 167.5 59.5Q70 153 70 300Q70 473 205.5 567.0Q341 661 587 661H730V701Q730 784 676.5 824.0Q623 864 520 864Q469 864 389.0 849.5Q309 835 229 808L156 1018Q259 1057 370.5 1077.0Q482 1097 570 1097Q807 1097 920.5 1000.5Q1034 904 1034 722ZM538 192Q589 192 645.0 222.5Q701 253 730 309V481H652Q520 481 458.0 440.5Q396 400 396 322Q396 261 433.5 226.5Q471 192 538 192Z" transform="translate(1028.4,628) scale(0.007000,-0.007000)"/>
    <path d="M694 1484V334Q694 270 730.5 242.5Q767 215 831 215Q872 215 910.0 224.5Q948 234 981 247L1057 36Q1003 8 927.0 -13.0Q851 -34 750 -34Q558 -34 468.0 76.5Q378 187 378 373V1268H65V1484Z" transform="translate(1036.8,628) scale(0.007000,-0.007000)"/>
    <path d="M703 215Q768 215 825.5 240.5Q883 266 940 306L1081 106Q1011 46 910.5 6.0Q810 -34 686 -34Q515 -34 392.0 36.5Q269 107 203.0 232.5Q137 358 137 524Q137 690 204.5 819.5Q272 949 396.5 1023.0Q521 1097 692 1097Q813 1097 907.5 1063.5Q1002 1030 1081 964L944 774Q890 812 830.0 833.0Q770 854 705 854Q598 854 532.5 778.5Q467 703 467 524Q467 407 498.0 339.5Q529 272 582.5 243.5Q636 215 703 215Z" transform="translate(1045.2,628) scale(0.007000,-0.007000)"/>
    <path d="M600 1097Q764 1097 879.0 1027.0Q994 957 1055.0 830.5Q1116 704 1116 534Q1116 357 1054.5 229.5Q993 102 878.0 34.0Q763 -34 600 -34Q438 -34 322.5 33.0Q207 100 145.5 227.0Q84 354 84 532Q84 701 145.5 828.0Q207 955 322.5 1026.0Q438 1097 600 1097ZM600 864Q503 864 456.5 784.5Q410 705 410 532Q410 356 456.5 277.0Q503 198 600 198Q697 198 743.5 277.0Q790 356 790 534Q790 706 743.5 785.0Q697 864 600 864Z" transform="translate(1053.6,628) scale(0.007000,-0.007000)"/>
    <path d="M140 0V1062H416L438 939Q509 1019 588.0 1058.0Q667 1097 768 1097Q904 1097 982.0 1014.0Q1060 931 1060 780V0H744V689Q744 754 735.0 792.5Q726 831 703.5 847.5Q681 864 642 864Q609 864 577.5 849.5Q546 835 516.0 808.0Q486 781 456 743V0Z" transform="translate(1062.0,628) scale(0.007000,-0.007000)"/>
    <path d="M744 1517 1060 1484V0H780L764 117Q720 55 647.0 10.5Q574 -34 470 -34Q338 -34 251.5 37.0Q165 108 122.5 235.5Q80 363 80 534Q80 698 131.0 825.0Q182 952 277.0 1024.5Q372 1097 503 1097Q574 1097 635.0 1072.0Q696 1047 744 999ZM588 866Q506 866 456.0 788.5Q406 711 406 532Q406 401 427.0 328.5Q448 256 485.0 227.0Q522 198 570 198Q623 198 666.5 231.0Q710 264 744 321V779Q711 820 674.0 843.0Q637 866 588 866Z" transform="translate(1110.0,628) scale(0.007000,-0.007000)"/>
    <path d="M414 439Q425 352 459.5 298.5Q494 245 548.0 220.5Q602 196 669 196Q742 196 810.0 220.0Q878 244 941 284L1068 112Q993 48 886.5 7.0Q780 -34 644 -34Q462 -34 339.0 38.5Q216 111 154.0 238.0Q92 365 92 530Q92 687 152.0 815.5Q212 944 327.5 1020.5Q443 1097 610 1097Q762 1097 873.5 1032.0Q985 967 1046.5 845.0Q1108 723 1108 552Q1108 525 1106.5 494.0Q1105 463 1102 439ZM610 885Q525 885 473.0 824.0Q421 763 410 629H800Q799 745 755.0 815.0Q711 885 610 885Z" transform="translate(1118.4,628) scale(0.007000,-0.007000)"/>
    <path d="M150 0V212H290V852H150V1062H531L589 823Q646 960 734.5 1027.0Q823 1094 951 1094Q1005 1094 1047.0 1085.5Q1089 1077 1126 1062L1030 801Q1001 809 972.0 813.0Q943 817 908 817Q804 817 725.5 732.0Q647 647 606 516V212H816V0ZM869 618V928L916 1062H1126L1067 618Z" transform="translate(1126.8,628) scale(0.007000,-0.007000)"/>
    <path d="M789 1062V216H1059V0H172V216H473V846H182V1062ZM598 1618Q680 1618 732.0 1567.0Q784 1516 784 1440Q784 1364 732.0 1312.5Q680 1261 598 1261Q515 1261 462.5 1312.5Q410 1364 410 1440Q410 1516 462.5 1567.0Q515 1618 598 1618Z" transform="translate(1135.2,628) scale(0.007000,-0.007000)"/>
    <path d="M1142 1062 788 0H416L58 1062H399L606 242L822 1062Z" transform="translate(1143.6,628) scale(0.007000,-0.007000)"/>
    <path d="M414 439Q425 352 459.5 298.5Q494 245 548.0 220.5Q602 196 669 196Q742 196 810.0 220.0Q878 244 941 284L1068 112Q993 48 886.5 7.0Q780 -34 644 -34Q462 -34 339.0 38.5Q216 111 154.0 238.0Q92 365 92 530Q92 687 152.0 815.5Q212 944 327.5 1020.5Q443 1097 610 1097Q762 1097 873.5 1032.0Q985 967 1046.5 845.0Q1108 723 1108 552Q1108 525 1106.5 494.0Q1105 463 1102 439ZM610 885Q525 885 473.0 824.0Q421 763 410 629H800Q799 745 755.0 815.0Q711 885 610 885Z" transform="translate(1152.0,628) scale(0.007000,-0.007000)"/>
    <path d="M694 1484V334Q694 270 730.5 242.5Q767 215 831 215Q872 215 910.0 224.5Q948 234 981 247L1057 36Q1003 8 927.0 -13.0Q851 -34 750 -34Q558 -34 468.0 76.5Q378 187 378 373V1268H65V1484Z" transform="translate(1200.0,628) scale(0.007000,-0.007000)"/>
    <path d="M1034 306Q1034 246 1050.5 219.0Q1067 192 1104 178L1039 -30Q945 -21 880.5 11.5Q816 44 779 110Q718 37 623.0 1.5Q528 -34 429 -34Q265 -34 167.5 59.5Q70 153 70 300Q70 473 205.5 567.0Q341 661 587 661H730V701Q730 784 676.5 824.0Q623 864 520 864Q469 864 389.0 849.5Q309 835 229 808L156 1018Q259 1057 370.5 1077.0Q482 1097 570 1097Q807 1097 920.5 1000.5Q1034 904 1034 722ZM538 192Q589 192 645.0 222.5Q701 253 730 309V481H652Q520 481 458.0 440.5Q396 400 396 322Q396 261 433.5 226.5Q471 192 538 192Z" transform="translate(1208.4,628) scale(0.007000,-0.007000)"/>
    <path d="M1096 62Q1034 22 946.0 -6.0Q858 -34 748 -34Q540 -34 439.0 72.5Q338 179 338 362V844H115V1062H338V1292L654 1330V1062H996L965 844H654V362Q654 283 690.0 249.0Q726 215 805 215Q861 215 907.5 228.5Q954 242 991 263Z" transform="translate(1216.8,628) scale(0.007000,-0.007000)"/>
    <path d="M703 215Q768 215 825.5 240.5Q883 266 940 306L1081 106Q1011 46 910.5 6.0Q810 -34 686 -34Q515 -34 392.0 36.5Q269 107 203.0 232.5Q137 358 137 524Q137 690 204.5 819.5Q272 949 396.5 1023.0Q521 1097 692 1097Q813 1097 907.5 1063.5Q1002 1030 1081 964L944 774Q890 812 830.0 833.0Q770 854 705 854Q598 854 532.5 778.5Q467 703 467 524Q467 407 498.0 339.5Q529 272 582.5 243.5Q636 215 703 215Z" transform="translate(1225.2,628) scale(0.007000,-0.007000)"/>
    <path d="M456 1515V957Q523 1028 601.5 1062.5Q680 1097 768 1097Q910 1097 985.0 1014.0Q1060 931 1060 780V0H744V692Q744 788 722.5 826.0Q701 864 642 864Q609 864 577.5 848.5Q546 833 516.0 804.0Q486 775 456 735V0H140V1484Z" transform="translate(1233.6,628) scale(0.007000,-0.007000)"/>
  </g>
</svg>
